<svg width="202" height="180" viewBox="0 0 202 180" fill="none" xmlns="http://www.w3.org/2000/svg">
<path d="M22.5713 41C22.5713 36.5817 26.153 33 30.5713 33H171.428C175.847 33 179.428 36.5817 179.428 41V109.222H22.5713V41Z" fill="#CCCCCC"/>
<path d="M179.429 139.167H161.429V147.333L171.714 180H179.429V139.167Z" fill="#CCCCCC"/>
<path d="M22.5713 141.889H40.5713V149.511L30.2856 180H22.5713V141.889Z" fill="#CCCCCC"/>
<path d="M12.2857 83.7222C6.00029 83.7222 1 89.0992 1 95.6111V128.278C1 134.79 6.00029 140.167 12.2857 140.167H189.714C196 140.167 201 134.79 201 128.278V95.6111C201 89.0992 196 83.7222 189.714 83.7222H187.143C180.857 83.7222 175.857 89.0992 175.857 95.6111V113.667H26.1429V95.6111C26.1429 89.0992 21.1426 83.7222 14.8571 83.7222H12.2857Z" fill="#CCCCCC" stroke="white" stroke-width="2"/>
<path d="M147.5 9.5C147.5 14.7467 143.023 19 137.5 19C134.081 19 131.062 17.3698 129.259 14.8829C128.15 13.3529 127.5 11.4985 127.5 9.5C127.5 4.25329 131.977 0 137.5 0C143.023 0 147.5 4.25329 147.5 9.5Z" fill="#EEEEEE"/>
<path d="M129.259 14.8828C131.062 17.3697 134.081 18.9999 137.5 18.9999H126C127.086 18.1665 129.259 16.1765 129.259 14.8828Z" fill="#EEEEEE"/>
<circle cx="132.75" cy="9.25" r="1.25" fill="#CCCCCC"/>
<circle cx="137.75" cy="9.25" r="1.25" fill="#CCCCCC"/>
<circle cx="142.75" cy="9.25" r="1.25" fill="#CCCCCC"/>
</svg>
