<svg width="100" height="100" viewBox="0 0 100 100" fill="none" xmlns="http://www.w3.org/2000/svg">
<path fill-rule="evenodd" clip-rule="evenodd" d="M34.9985 5.3809C34.9985 5.43001 34.8316 5.54901 34.6277 5.64523C34.4238 5.74155 34.0803 5.92501 33.8643 6.05308L33.4718 6.28592L32.5121 6.18935C31.9209 6.12985 31.4185 6.12235 31.2035 6.16989C29.158 6.62179 27.361 6.77708 26.0564 6.61473C25.6246 6.56099 24.8697 6.47968 24.379 6.43397C23.8882 6.38834 23.3315 6.28889 23.1417 6.2129C22.6159 6.00257 21.6913 6.08789 20.7348 6.43501C19.9868 6.7065 19.9226 6.71558 19.3793 6.62615C18.2666 6.44295 16.9422 7.02214 17.1623 7.59565C17.2381 7.79316 17.4146 7.80895 19.3597 7.7915L21.1254 7.77571L21.567 7.40329C21.8638 7.15308 22.1144 7.01847 22.3313 6.99282C22.6598 6.954 22.7272 6.98183 23.4049 7.43687C23.8807 7.75634 24.678 7.93623 25.3149 7.86784C25.6413 7.83277 25.955 7.86295 26.2963 7.96214C26.7568 8.09605 26.8366 8.09675 27.2694 7.97095C27.8588 7.79961 28.3814 7.79804 29.3279 7.96476C29.7357 8.03656 30.2398 8.09544 30.4481 8.09553C30.7548 8.09562 30.8948 8.15372 31.1836 8.40096C31.3798 8.56889 31.6264 8.7063 31.7317 8.7063C31.837 8.7063 32.0731 8.56889 32.2565 8.40096C32.6378 8.05174 32.8116 8.02269 33.0362 8.27071C33.4492 8.72706 33.1034 8.70987 41.7836 8.70717L49.8438 8.70473L50.3189 8.48741C50.9115 8.21636 50.9883 8.21706 51.4677 8.49797L51.8566 8.72584L56.6653 8.71607L61.474 8.7063L61.911 8.43175C62.1821 8.26155 62.5049 8.14133 62.7609 8.11551C63.1277 8.07835 63.2402 8.11385 63.7694 8.43358C64.5977 8.93408 64.8509 8.92291 65.4972 8.35734C66.1513 7.78496 66.3361 7.78496 66.9115 8.35734C67.2801 8.724 67.4017 8.79353 67.6745 8.79353C67.9954 8.79353 68.064 8.75122 69.1709 7.86949C69.3222 7.74893 69.3812 7.63779 69.3446 7.54235C69.2984 7.42213 69.1533 7.3977 68.4855 7.3977C68.0437 7.3977 67.553 7.35103 67.3951 7.29389C67.1689 7.21214 66.9826 7.21511 66.5165 7.30784C65.6476 7.48075 64.7871 7.45066 64.2966 7.23011C63.9039 7.05363 63.8243 7.05005 62.0169 7.12927C60.9869 7.17437 59.8548 7.18998 59.5013 7.1639C58.9838 7.12569 58.757 7.15238 58.3381 7.30069C57.6918 7.52943 57.425 7.53179 56.9439 7.31256C56.5933 7.15291 56.4258 7.14349 54.6593 7.18405C53.6109 7.20813 52.603 7.26833 52.4197 7.31762C51.4156 7.58797 50.3098 7.56895 49.0562 7.25986C48.6189 7.15203 48.258 7.13555 47.355 7.18205L46.2087 7.24111L45.8598 7.00059C45.1032 6.47907 44.9172 6.4385 43.363 6.45639C42.1981 6.46973 41.8634 6.44539 41.5522 6.32457C41.2392 6.20304 40.8608 6.17635 39.4486 6.17635C38.5016 6.17635 37.5222 6.21517 37.2723 6.26254C36.7916 6.35371 36.485 6.26367 36.089 5.91515C35.993 5.8307 35.7669 5.71441 35.5865 5.65666C35.4061 5.59891 35.2001 5.49309 35.1285 5.42155C35.057 5.35001 34.9985 5.33169 34.9985 5.3809ZM12.4034 7.14776C12.0435 7.24364 11.4106 7.33489 10.9968 7.3505C10.2654 7.37811 9.35078 7.61994 8.35619 9.25407C8.50755 9.52199 8.78628 9.75317 8.95806 9.75317C10.8174 9.21994 10.8123 7.93637 12.5779 7.87682C13.6095 7.84193 14.5027 7.77397 14.5626 7.72572C14.7529 7.5727 14.6964 7.14087 14.4753 7.05869C14.1142 6.92443 13.0738 6.96918 12.4034 7.14776ZM18.5974 12.8516C18.4298 12.9484 18.1873 12.9659 17.5505 12.927C17.0194 12.8946 16.6306 12.9119 16.4678 12.9755C16.3281 13.03 16.2902 13.141 15.6037 13.1706C14.9558 13.1986 13.329 13.5917 12.6703 15.8373C12.0117 18.0829 13.3574 25.258 13.3574 25.258L13.3675 36.9398L12.9291 37.3375C12.3501 37.8627 12.3418 38.0981 12.8832 38.6295C13.2509 38.9903 13.2758 39.0441 13.2758 39.4784C13.2758 39.9026 13.2443 39.9762 12.905 40.3442L12.5343 40.7463L12.5082 45.5111C12.4939 48.1318 12.5039 50.395 12.5304 50.5405C12.557 50.686 12.6963 50.9338 12.84 51.0911C13.147 51.4272 13.173 51.7108 12.9179 51.9416C12.5667 52.2594 12.4908 52.5369 12.4859 53.5213C12.4833 54.0395 12.4454 54.7775 12.4015 55.1614C12.3577 55.5452 12.2951 56.2212 12.2624 56.6635L12.203 57.4676L12.4414 57.5583C12.5725 57.6082 12.7157 57.6268 12.7597 57.5996C12.8037 57.5724 12.8396 57.2656 12.8396 56.9177C12.8396 56.2342 12.9613 55.9504 13.2321 56.0025C13.3884 56.0326 13.3946 56.1908 13.3858 59.8966C13.3808 62.0211 13.4126 63.8846 13.4565 64.0378C13.5162 64.2463 13.5052 64.3476 13.4129 64.44C13.2251 64.6277 13.0355 64.5005 12.9179 64.1081C12.796 63.7012 12.6439 63.6597 12.4361 63.9769C12.3068 64.1743 12.3033 64.2535 12.4055 64.6791C12.5009 65.0767 12.5008 65.2741 12.4052 65.8308C12.2409 66.7864 12.2448 67.0743 12.4236 67.1884C12.5413 67.2635 12.6086 67.2508 12.7289 67.1308C12.8462 67.0137 12.8937 66.7843 12.9268 66.1727C12.9703 65.3724 12.9717 65.3682 13.2104 65.3408C13.4396 65.3144 13.5153 65.409 13.4421 65.6301C13.4262 65.6781 13.3921 68.8963 13.3664 72.7818L13.3194 79.8461L13.0577 79.9237C12.6566 80.0428 12.5577 80.1057 12.3642 80.3652C12.1942 80.5929 12.1846 80.7317 12.1716 83.15C12.1588 85.514 15.6384 88.4199 18.2841 88.4199C18.8174 88.2866 19.0841 88.4199 25.4457 87.9551C37.671 87.9184 36.844 87.877 37.7376 88.5709C38.018 88.7887 38.2991 88.9667 38.3624 88.9667C38.4257 88.9667 38.6589 88.8097 38.8806 88.6178C39.1024 88.4258 39.3439 88.2688 39.4173 88.2688C39.4907 88.2688 39.7065 88.4021 39.8968 88.565C40.0871 88.7279 40.3681 88.8799 40.5213 88.9029C40.6745 88.9259 41.5911 88.9248 42.5581 88.9007C43.5252 88.8764 45.5273 88.9038 47.0073 88.9616C49.0378 89.0409 49.8482 89.0422 50.309 88.967C50.7048 88.9023 51.3432 88.8888 52.1232 88.9284C53.422 88.9943 53.2943 88.9503 54.1968 89.6428C54.4 89.7988 54.6138 89.9264 54.6719 89.9264C54.7301 89.9264 55.081 89.7264 55.4517 89.482C56.0233 89.1051 56.2207 89.0244 56.7506 88.9509C57.2665 88.8793 67.9759 88.9115 70.505 88.9923C71.0565 89.0098 71.072 89.0044 71.072 88.7922C71.072 88.5947 71.0308 88.5699 70.6358 88.5288C69.8494 88.4469 69.1337 87.9713 69.3267 87.6589C69.3985 87.5428 72.7435 87.5396 72.8152 87.6556C72.844 87.7021 72.8071 87.8572 72.7332 88.0002C72.5455 88.363 72.5639 88.5066 72.8296 88.7528C73.1719 89.07 73.6846 89.0437 74.3831 88.6731C75.2436 88.2165 75.3003 88.2146 76.1683 88.6144C76.589 88.8082 77.0612 88.9667 77.2178 88.9667C77.5004 88.9667 78.2738 88.6304 78.5379 88.3928C78.6383 88.3024 78.922 88.2688 79.5859 88.2688C80.4946 88.2688 80.4971 88.2694 80.9748 88.596L81.4535 88.9231C81.4535 88.9231 82.9533 89.188 83.7508 88.8199C85.4841 88.0199 86.291 89.2721 86.291 89.2721C87.089 89.8296 87.4643 90.0035 87.8807 90.0086C88.3684 90.0146 88.8253 90.3369 88.8253 90.675C88.8253 90.9034 88.4118 91.3287 88.0987 91.4225C87.9945 91.4538 86.9257 91.4831 85.7236 91.4879L83.5379 91.4967L83.1386 91.7498C82.919 91.8891 82.7128 92.0461 82.6801 92.0988C82.5742 92.2702 82.391 92.201 82.0099 91.8456C81.8042 91.6537 81.5717 91.4967 81.4935 91.4967C81.4153 91.4967 81.1625 91.6439 80.9317 91.8238L80.512 92.151L78.322 92.1998C76.2978 92.245 76.1064 92.2629 75.7944 92.4356C75.6087 92.5385 75.3927 92.6778 75.3146 92.7452C75.1359 92.8991 74.6444 93.067 74.3722 93.067C74.2584 93.067 73.901 92.9456 73.5782 92.7973C73.0004 92.5318 72.9616 92.5264 71.072 92.455C68.7983 92.369 64.6389 92.4124 64.2673 92.5262C64.1234 92.5702 63.8486 92.7145 63.6567 92.847L63.3077 93.0876L61.8056 93.0335C60.3431 92.9809 60.2909 92.9851 59.8209 93.1929C59.4681 93.3489 59.3383 93.4532 59.3383 93.5805C59.3383 93.6763 59.3783 93.7793 59.427 93.8094C59.5111 93.8614 60.7754 93.9471 61.4321 93.9454C62.309 93.943 65.6383 93.7735 66.6512 93.6797C67.5579 93.5956 68.0338 93.5946 68.8151 93.6751L69.8166 93.7783L70.1218 93.5317C71.0268 92.8005 71.0123 92.8019 71.6693 93.3866L72.092 93.763L74.9408 93.7167C80.7731 93.6222 83.0857 93.6317 84.417 93.7556C84.417 93.7556 85.2121 94.0601 86.1508 93.8866C89.3508 93.6199 91.9395 90.675 92.2749 88.9231C92.0634 88.3005 92.0907 88.1471 92.4901 87.7139C92.6881 87.4991 92.8522 87.2539 92.8548 87.1688C92.9022 85.6345 93.0694 78.9527 93.0057 78.8337C92.8816 78.6019 92.5279 78.5398 92.2749 78.7056C91.9704 78.9052 91.8819 79.3416 91.9395 80.3592C91.9695 80.8893 91.9459 81.5572 91.8811 82.0142C91.7854 82.6879 91.726 82.8479 91.3885 83.3408C91.0229 83.8747 91.0021 83.9393 90.948 84.7007C90.8972 85.4163 90.8627 85.5378 90.6187 85.8594C90.1198 86.5168 89.9594 86.9193 89.9594 87.5129C89.9594 88.0254 89.9397 88.0791 89.6492 88.3608C89.3567 88.6442 89.3048 88.6614 88.7389 88.6614C88.1914 88.6614 88.1147 88.6384 87.8639 88.3997C87.7126 88.2557 85.3508 88.1533 86.291 87.2199C87.4841 85.2199 87.4841 83.8866 87.3788 81.9755L87.3699 76.162L87.0465 75.7673C86.8544 75.5329 86.7013 75.2367 86.6693 75.0379C86.6398 74.8537 86.5337 74.5919 86.4336 74.456C86.2646 74.2265 86.2496 74.0726 86.2224 72.289C86.2063 71.2329 86.2169 70.2743 86.2459 70.1588C86.2748 70.0433 86.448 69.85 86.6306 69.7291C86.8132 69.6083 87.0495 69.3918 87.1558 69.248L87.349 68.9867L87.3724 60.7219C87.3866 55.6988 87.3636 52.3886 87.3139 52.2825C87.2688 52.1865 87.104 51.9496 86.9478 51.7562C86.7916 51.5627 86.6046 51.2297 86.5324 51.0161C86.4099 50.6536 86.4131 50.5988 86.5808 50.1902C86.7519 49.7732 86.7594 49.6085 86.7391 46.6991C86.7189 43.7971 86.7088 43.6273 86.5347 43.275L86.3516 42.9042L86.5632 42.4898C86.7546 42.1152 86.7726 41.9854 86.7505 41.1387C86.7246 40.1424 86.746 40.0688 87.2385 39.4626C87.4202 39.2389 87.4431 39.1345 87.4131 38.6652C87.3834 38.1969 87.3357 38.0724 87.0552 37.73C86.8771 37.5129 86.7315 37.2928 86.7315 37.2411C86.7315 37.1892 86.8788 36.984 87.0587 36.7851L87.3858 36.4233L87.4102 35.4108C87.4287 34.6402 87.4037 34.3463 87.3056 34.1803C87.2348 34.0603 87.0945 33.8008 86.994 33.6038C86.8219 33.2664 86.6589 33.0659 86.3431 32.8028C86.2257 32.705 86.2081 32.2737 86.2081 29.5053V26.3204L86.439 26.1063C86.6119 25.9461 86.6805 25.7826 86.7119 25.4552C86.7482 25.0776 86.7197 24.9689 86.5028 24.656L86.2517 24.2939L86.2248 21.5818C86.2098 20.0902 86.2213 20.5871 86.25 20.4326C86.2787 20.2781 86.4026 20.0324 86.5253 19.8866C86.8064 19.5525 86.8199 18.9813 86.5622 18.3275C86.5622 18.3275 86.3364 18.3102 86.5134 17.8866C86.6648 17.5242 86.683 17.1927 86.5557 17.1141C86.5071 17.084 86.412 16.9272 86.3445 16.7658C86.277 16.6043 86.4199 16.3584 86.2841 16.2866C86.4174 15.3533 84.9508 13.2199 83.4709 13.2052C83.1996 12.8586 83.1055 12.8351 82.743 13.0241C82.6056 13.0958 82.3084 13.1546 82.0826 13.155C81.7892 13.1553 81.5805 13.2177 81.3508 13.3736C81.0308 13.5908 81.0209 13.5917 81.0209 13.5917H78.9986L78.7151 13.3385C78.5591 13.1993 78.2884 13.0586 78.1135 13.0257C77.9386 12.9929 77.6836 12.9082 77.5468 12.8374C77.1134 12.6133 76.857 12.7089 76.6351 13.1773L76.4389 13.5917H74.9281C73.2665 13.5917 73.1974 13.573 72.9556 13.0596C72.8095 12.7494 72.5862 12.6597 72.2004 12.7566C72.0522 12.7938 71.9687 12.9036 71.903 13.1474C71.8527 13.3339 71.75 13.5102 71.6746 13.5391C71.5992 13.5681 70.9225 13.5916 70.1707 13.5916C68.8234 13.5915 68.8 13.5882 68.5421 13.3644C68.1674 13.0392 67.963 12.9823 67.5288 13.0825C67.2664 13.143 66.9682 13.1414 66.5792 13.0773C65.8258 12.9531 60.7359 12.8911 60.1298 12.9987C59.7863 13.0597 59.5912 13.1526 59.4187 13.3372L59.1811 13.5917H57.1341C55.1606 13.5917 55.0784 13.5848 54.8444 13.4008L54.6018 13.21L54.2701 13.4008C53.9395 13.5912 53.9239 13.5917 48.8872 13.5917H43.8359L43.452 13.3316C42.9387 12.9837 42.5449 12.9832 42.1085 13.33C41.6781 13.672 41.1335 13.6888 40.6254 13.3759C40.2841 13.1657 40.2362 13.1609 38.4491 13.1582L36.6218 13.1555L36.2934 13.3831C36.0186 13.5735 35.9038 13.602 35.5907 13.5573C34.543 13.408 34.2383 13.4051 33.7209 13.5396C32.8203 13.7737 32.5061 13.7217 32.0071 13.2561C31.8158 13.0776 31.6852 13.0325 31.3964 13.0452C31.1944 13.0541 30.1654 13.0992 29.1098 13.1453C28.0542 13.1915 26.9849 13.2522 26.7336 13.2803C26.4823 13.3083 25.609 13.2881 24.7929 13.2353L23.3091 13.1394L23.0404 13.3656C22.7732 13.5903 22.7619 13.5917 21.2273 13.5917C19.5559 13.5917 19.2953 13.5287 19.2953 13.1244C19.2953 12.7383 18.9958 12.6213 18.5974 12.8516ZM7.81941 13.2824L7.60523 13.4965L7.60218 15.6161C7.59974 17.2891 7.57278 17.7816 7.47437 17.9537C7.4058 18.0736 7.34831 18.3926 7.34657 18.6625C7.34369 19.1235 7.3197 19.178 6.95094 19.5629C6.56804 19.9626 6.47443 20.1347 6.6401 20.1347C6.7755 20.1347 7.51799 21.3065 7.51799 21.5202C7.51799 21.6296 7.38556 21.922 7.22382 22.1701C7.06199 22.4181 6.90487 22.7262 6.87469 22.8548C6.8445 22.9834 6.76102 23.1474 6.68904 23.2194C6.50287 23.4056 6.5054 24.6981 6.69245 24.911C6.76616 24.9951 6.93296 25.1987 7.06321 25.3636L7.29989 25.6636L7.34639 27.8936C7.37195 29.1201 7.36419 30.261 7.32912 30.429C7.28908 30.6209 7.13405 30.857 6.91185 31.0646C6.56979 31.3842 6.44399 31.7328 6.66741 31.7421C6.72743 31.7445 6.904 31.9058 7.05999 32.1005L7.34351 32.4543V33.9212C7.34351 35.32 7.33418 35.3997 7.14382 35.6348C7.03399 35.7705 6.89746 35.9894 6.8404 36.1213C6.78326 36.2532 6.69646 36.3612 6.64743 36.3612C6.59526 36.3612 6.55836 36.6144 6.55836 36.9719C6.55836 37.3209 6.59578 37.5826 6.6456 37.5826C6.69925 37.5826 6.73284 38.0188 6.73284 38.7167C6.73284 39.4146 6.69925 39.8508 6.6456 39.8508C6.59666 39.8508 6.55836 40.0922 6.55836 40.4005V40.9501L6.94605 41.1953C7.70146 41.6727 7.63812 41.1471 7.62294 46.8105C7.61108 51.2414 7.5925 51.8842 7.46835 52.1621C7.33907 52.4514 7.33889 52.5003 7.46626 52.7466C7.64126 53.0851 7.64519 53.7794 7.47437 54.1883C7.4024 54.3605 7.34351 54.6951 7.34351 54.9317C7.34351 55.2805 7.28428 55.4503 7.0305 55.8288C6.85838 56.0854 6.68171 56.3086 6.63792 56.3245C6.52913 56.3643 6.53646 57.2115 6.6456 57.2115C6.69873 57.2115 6.73284 57.6041 6.73284 58.2148C6.73284 58.8254 6.69873 59.218 6.6456 59.218C6.59762 59.218 6.55836 59.4143 6.55836 59.6542C6.55836 59.8941 6.59849 60.0904 6.64743 60.0904C6.69646 60.0904 6.78326 60.1983 6.8404 60.3303C6.89746 60.4622 7.03844 60.6864 7.15368 60.8286C7.33549 61.0527 7.35616 61.1465 7.31028 61.5372C7.26526 61.92 7.28672 62.0249 7.45309 62.2363L7.64885 62.4852V69.7282C7.64885 73.7119 7.61814 77.2107 7.58054 77.5033C7.4954 78.1676 7.63943 78.3969 8.18834 78.4704C8.5011 78.5124 8.58406 78.4866 8.78515 78.2856C8.99164 78.0791 9.01005 78.0147 8.94445 77.7298C8.86279 77.3754 8.85232 76.0416 8.91269 73.6998C8.94113 72.5946 8.91924 72.0367 8.83348 71.6789C8.73629 71.2738 8.73481 71.1086 8.82537 70.7629C8.89734 70.4883 8.93267 69.7786 8.92674 68.7296C8.91828 67.2525 8.9981 66.4645 9.15714 66.4553C9.19125 66.4533 9.39015 66.2972 9.59901 66.1082C9.84197 65.8886 9.97728 65.6933 9.97431 65.5665C9.88847 61.8636 9.86552 61.42 9.73964 61.0411C9.66531 60.8174 9.52764 60.5648 9.43369 60.4798C9.19099 60.2601 9.22178 59.9848 9.5245 59.6679C9.66845 59.5173 9.79032 59.3251 9.7953 59.2406C9.80027 59.1562 9.81911 57.5168 9.83726 55.5976C9.8554 53.6783 9.87425 51.8136 9.87913 51.4537C9.88402 51.0938 9.86308 50.2498 9.83263 49.578C9.80219 48.9063 9.81109 48.1211 9.85252 47.8333C9.94334 47.2014 9.80498 46.6259 9.4418 46.1245L9.19683 45.7863L9.24228 44.4341C9.27875 43.3483 9.26121 43.0086 9.15312 42.7096C8.80277 41.7399 8.79597 41.0496 9.13027 40.3743C9.31208 40.0069 9.3454 39.5269 9.25816 38.5324C9.1663 37.4855 9.17912 37.4297 9.70657 36.584C9.93104 36.2242 9.96742 36.0937 9.92546 35.7988C9.78971 34.8455 9.76973 34.0292 9.8684 33.4768C9.96533 32.9346 9.95913 32.8496 9.79608 32.4811C9.69811 32.2595 9.53803 31.9767 9.44032 31.8525C9.19884 31.5454 9.21672 31.3754 9.5245 31.0533C9.85078 30.7119 9.86579 30.3624 9.56917 30.0099C9.27509 29.6605 9.1902 29.3987 9.26427 29.0703C9.30893 28.8722 9.27587 28.6864 9.14728 28.4121C8.97533 28.0455 8.96512 27.8143 8.89673 22.7519C8.82371 17.3474 8.78323 16.748 8.46332 16.3413C8.32714 16.1682 8.31344 16.0286 8.35951 15.2813C8.40426 14.554 8.45329 14.3426 8.67584 13.9179C8.93075 13.4313 8.93415 13.4098 8.7821 13.2418C8.55684 12.9929 8.08915 13.0126 7.81941 13.2824ZM90.9365 16.9243C90.7881 17.0727 90.8068 17.3881 90.9721 17.5253C91.0913 17.6243 91.1307 17.6168 91.2338 17.4757C91.3791 17.2771 91.3834 17.2096 91.2649 16.9883C91.1604 16.7931 91.0828 16.778 90.9365 16.9243ZM91.9056 24.8674C91.8453 24.9607 91.8083 25.6219 91.7893 26.9444C91.7844 27.2924 91.9909 27.8007 92.3108 28.2275C92.6206 28.6412 92.8894 28.7932 93.1928 28.7266C93.4339 28.6736 93.449 28.645 93.449 28.2411C93.449 27.9306 93.415 27.8118 93.3264 27.8118C93.259 27.8118 93.0746 27.586 92.9166 27.3101C92.6493 26.8435 92.6302 26.757 92.6421 26.07C92.6526 25.4653 92.6227 25.2795 92.4777 25.045C92.2972 24.7529 92.0328 24.6709 91.9056 24.8674ZM29.8041 26.6152C30.3286 26.8399 33.0507 28.511 33.605 28.9486C33.8196 29.118 34.2111 29.4012 34.475 29.5779C34.7389 29.7547 35.2036 30.1309 35.5076 30.414L36.0603 30.9287L35.9986 31.7475C35.9549 32.3269 35.8762 32.6963 35.7294 33.0109C35.6152 33.2555 35.5218 33.5696 35.5216 33.7088C35.5215 33.8481 35.4431 34.4333 35.3474 35.009C35.2517 35.5848 35.1733 36.2536 35.1732 36.4952C35.173 36.7367 35.0944 37.1577 34.9985 37.4308C34.9025 37.7038 34.824 38.008 34.824 38.1066C34.824 38.2054 34.7617 38.4321 34.6856 38.6105C34.5412 38.9489 34.3802 40.1564 34.34 41.203C34.3271 41.5389 34.2556 42.1082 34.1811 42.468C34.1067 42.8279 34.0442 43.2476 34.0423 43.4007C34.0404 43.5538 33.9988 43.7038 33.9499 43.734C33.9011 43.7642 33.8629 43.9334 33.865 44.11C33.8719 44.6719 33.76 45.2096 33.5915 45.4241C33.4592 45.5926 33.4281 45.7822 33.4281 46.4205C33.4281 46.9914 33.3928 47.2479 33.3 47.3505C33.2054 47.455 33.1513 47.8803 33.0935 48.975C33.0366 50.0522 32.9762 50.5331 32.8727 50.7334C32.7944 50.8849 32.7302 51.1236 32.7302 51.264C32.7302 51.4042 32.6653 51.6908 32.586 51.9007C32.4905 52.1535 32.4221 52.7099 32.3835 53.5474C32.3515 54.2432 32.2811 54.8943 32.227 54.9945C31.9692 55.4718 31.7505 57.012 31.7081 58.651C31.6718 60.0516 31.632 60.4302 31.4509 61.0937C31.333 61.5255 31.2144 61.969 31.1873 62.0792C31.156 62.2067 31.2346 62.4768 31.4032 62.8208C31.5491 63.1184 31.6916 63.4956 31.72 63.659C31.8184 64.225 31.4564 64.1909 37.3428 64.1886C40.4675 64.1873 42.8715 64.1512 43.0828 64.1025C43.7215 63.955 45.1442 63.7317 45.6994 63.6918C46.3502 63.6449 46.2666 63.597 48.1725 65.1088C50.7253 67.1336 51.1521 67.6331 51.9604 69.5423C52.0448 69.7416 52.1245 70.2625 52.1567 70.8261C52.2292 72.0944 52.117 72.2363 51.339 71.8596L50.9617 71.677L50.6522 71.8596C50.4819 71.9601 50.244 72.0422 50.1234 72.0422C49.9953 72.0422 49.7343 72.1852 49.4958 72.386C49.0675 72.747 48.5088 72.9351 48.2023 72.8216C48.1035 72.7851 47.9482 72.6582 47.8572 72.5398C47.6951 72.3286 47.6778 72.326 46.9939 72.4067C46.6101 72.452 46.0749 72.4656 45.8047 72.437C45.444 72.3987 45.2123 72.4252 44.9323 72.5366C44.5972 72.6701 44.0357 72.6961 40.2765 72.7526C37.9253 72.788 35.8492 72.8179 35.6629 72.8192C35.473 72.8204 35.254 72.8849 35.1646 72.9658C34.9493 73.1607 34.7007 73.0618 34.7672 72.8078C34.7972 72.693 34.7618 72.5542 34.6793 72.4631C34.5538 72.3245 34.5179 72.3224 34.2895 72.4406C34.1511 72.5121 33.8571 72.5842 33.6362 72.6007C33.2997 72.626 33.1902 72.5923 32.9605 72.3933C32.5777 72.0613 32.2563 71.9963 32.0569 72.2104C31.8448 72.438 31.4814 72.5693 31.3272 72.4739C31.2591 72.4319 31.2035 72.2689 31.2035 72.1117C31.2035 71.7725 31.0541 71.72 30.0419 71.7036C29.6909 71.6979 29.3245 71.6509 29.2277 71.5991C29.0935 71.5273 29.0171 71.5352 28.9063 71.6322C28.5083 71.9806 28.2241 72.0422 27.016 72.0422C26.1465 72.0422 25.7639 72.0763 25.5833 72.1696C25.4478 72.2397 25.3157 72.2758 25.2897 72.2498C25.2227 72.1826 24.8757 72.3746 24.6004 72.6313C24.4628 72.7595 24.3097 72.8285 24.2303 72.7982C24.1553 72.7693 23.7551 72.9197 23.3317 73.1358C22.9119 73.3501 22.5175 73.5253 22.4555 73.5253C22.3934 73.5253 22.2444 73.5897 22.1243 73.6683C21.9165 73.8045 21.8955 73.8014 21.6874 73.606C21.5672 73.493 21.3452 73.1441 21.194 72.8304C21.0429 72.5169 20.7634 72.0336 20.573 71.7565C20.2415 71.2743 20.2305 71.2368 20.3188 70.8841C20.3695 70.6814 20.4638 70.3859 20.5283 70.2275C20.6311 69.9751 20.6269 69.9069 20.4939 69.6752C20.4104 69.5298 20.3422 69.3033 20.3422 69.1718C20.3422 68.8281 20.5987 68.1174 20.8362 67.8029C20.9484 67.6544 21.0401 67.5068 21.0401 67.4748C21.0401 67.4429 21.1815 67.2155 21.3545 66.9695C21.5918 66.6319 21.6733 66.4231 21.687 66.1175C21.7038 65.7453 21.9474 64.9843 22.2202 64.4524C22.2817 64.3324 22.359 64.038 22.3921 63.7981C22.4251 63.5582 22.527 62.9828 22.6185 62.5194C22.739 61.9091 22.7849 61.3025 22.7849 60.3184C22.7849 59.3175 22.8193 58.8732 22.9153 58.6309C23.067 58.2487 23.1815 57.7384 23.3615 56.6445C23.4325 56.2126 23.5523 55.6041 23.6276 55.2922C23.7029 54.9804 23.7966 54.5413 23.8356 54.3166C23.8747 54.0919 23.9563 53.8171 24.0169 53.706C24.0775 53.5947 24.1542 53.0424 24.1872 52.4784C24.2252 51.8284 24.2902 51.4013 24.3645 51.3117C24.5066 51.1404 24.6355 50.2868 24.624 49.5933C24.6194 49.3139 24.6748 48.8567 24.7471 48.5775C24.8194 48.2982 24.8787 47.8903 24.8787 47.671C24.8787 47.3595 24.9325 47.2095 25.1246 46.9857C25.4276 46.6328 25.6438 45.8102 25.503 45.5469C25.4509 45.4495 25.4319 45.3462 25.4607 45.3173C25.4897 45.2885 25.543 44.9398 25.5793 44.5425C25.6157 44.1453 25.7037 43.6828 25.775 43.5149C26.0158 42.9477 26.1 42.5884 26.1037 42.1129C26.1084 41.503 26.3657 40.4365 26.5599 40.2219C26.6468 40.1258 26.7107 39.9156 26.7107 39.7257C26.7107 39.5444 26.7658 39.1746 26.8332 38.9038C26.9006 38.633 26.982 38.0847 27.0142 37.6855C27.0464 37.2862 27.1246 36.7759 27.188 36.5513C27.2514 36.3269 27.327 35.8606 27.3561 35.5153C27.3851 35.17 27.472 34.6204 27.5491 34.2939C27.7495 33.4447 27.7495 30.65 27.5491 30.0364C27.3597 29.4565 27.2648 28.0805 27.3972 27.8331C27.4521 27.7305 27.5168 27.4397 27.5408 27.187C27.5703 26.8779 27.6341 26.6978 27.7359 26.6371C28.3093 26.2948 29.0383 26.2871 29.8041 26.6152ZM91.9239 35.3998C91.7885 35.5494 91.7808 35.6222 91.8659 35.945C92.0148 36.5099 92.016 36.6443 91.886 38.1564C91.8128 39.0074 91.7832 40.0894 91.8107 40.9078C91.8357 41.6497 91.8263 42.5888 91.79 42.9949C91.7168 43.8153 91.7809 44.0383 92.0904 44.0383C92.2424 44.0383 92.3112 43.9758 92.3543 43.7984C92.3864 43.6665 92.5718 43.2277 92.7663 42.8233L93.12 42.088L93.1056 39.0283C93.0943 36.6293 93.0658 35.931 92.9739 35.7942C92.5873 35.2193 92.2142 35.0791 91.9239 35.3998ZM33.1374 42.7007C33.0512 42.7868 33.0668 43.4097 33.1565 43.4652C33.2463 43.5206 33.338 43.2287 33.3397 42.8824C33.3408 42.6516 33.2595 42.5785 33.1374 42.7007ZM91.8393 45.8349C91.7323 45.942 91.7101 46.0453 91.7588 46.2101C91.7958 46.3351 91.8134 48.8237 91.798 51.7403C91.7716 56.7231 91.7793 57.0534 91.9251 57.2146C92.2916 57.6195 92.8499 57.2743 93.0643 56.5102C93.1515 56.1994 93.2583 55.9902 93.3296 55.9902C93.4898 55.9902 93.4818 55.8469 93.3181 55.7841C93.2044 55.7405 93.1873 55.2024 93.1873 51.6745C93.1873 48.1244 93.2037 47.6152 93.3181 47.6152C93.4126 47.6152 93.449 47.5182 93.449 47.2662C93.449 47.0285 93.4108 46.9172 93.3291 46.9172C93.2632 46.9172 92.9971 46.6525 92.7376 46.3291C92.2284 45.694 92.0683 45.6059 91.8393 45.8349ZM32.2654 47.6292C32.1087 47.8078 32.0327 47.9822 32.0497 48.1241C32.0868 48.4341 32.2775 48.4622 32.3381 48.1666C32.3658 48.0312 32.4225 47.7929 32.464 47.637C32.5055 47.481 32.5322 47.3534 32.5234 47.3534C32.5146 47.3534 32.3985 47.4775 32.2654 47.6292ZM78.4002 49.3599C78.6219 49.5519 78.8746 49.7089 78.9618 49.7089C79.31 49.7089 79.3524 49.913 79.3341 51.5017C79.3217 52.5899 79.2794 53.1262 79.1839 53.4076C79.1107 53.623 79.0159 54.0664 78.973 54.3931C78.9301 54.7197 78.8328 55.1587 78.7566 55.3687C78.6805 55.5786 78.6177 55.8926 78.6171 56.0666C78.6165 56.2404 78.538 56.6316 78.4426 56.9357C78.3473 57.2399 78.2682 57.6718 78.267 57.8954C78.2658 58.1191 78.1883 58.6357 78.0948 59.0435C78.0013 59.4514 77.923 60.0403 77.9209 60.3521C77.9187 60.664 77.86 61.3118 77.7905 61.7916C77.721 62.2714 77.6629 63.065 77.6614 63.5551C77.6589 64.3727 77.6737 64.4543 77.8419 64.5443C77.9427 64.5983 78.2886 64.8346 78.6104 65.0694C79.0989 65.4258 79.2289 65.5767 79.3967 65.9816C79.5825 66.4299 79.5871 66.4785 79.457 66.6224C79.2718 66.8271 79.2815 67.2031 79.4838 67.6485C79.6292 67.9685 79.6329 68.024 79.5173 68.1396C79.4018 68.2552 79.4175 68.312 79.6569 68.6424C79.9453 69.0406 79.9933 69.274 79.8178 69.4243C79.7579 69.4756 79.3533 69.7463 78.9191 70.026C78.4528 70.3263 77.96 70.7327 77.7161 71.0182C77.4371 71.3448 77.1265 71.5896 76.7596 71.7721C76.2634 72.0189 76.1421 72.0422 75.3609 72.0422C74.6017 72.0422 74.4628 72.0173 74.1265 71.8201C73.6899 71.5643 73.4189 71.2365 73.0836 70.5592C72.953 70.2953 72.81 70.0205 72.7659 69.9485C72.7217 69.8765 72.6464 69.7195 72.5985 69.5995C72.5507 69.4796 72.4722 69.3225 72.4241 69.2506C72.376 69.1786 72.2973 69.0216 72.2494 68.9016C71.8843 67.9885 71.7881 67.9922 70.6469 68.9644C69.9649 69.5454 68.1741 70.9202 67.9375 71.0442C67.8381 71.0963 67.6784 71.1827 67.5824 71.2361C66.746 71.7023 65.384 72.0422 64.3527 72.0422C63.6549 72.0422 62.4516 71.7819 61.9836 71.5297C61.8962 71.4826 61.648 71.3632 61.4321 71.2642C60.6939 70.9262 59.3355 69.0115 58.6913 67.4013C58.4245 66.7341 58.3976 66.0177 58.593 64.7786C58.6629 64.3353 58.7596 63.1285 58.8077 62.0969C58.8559 61.0653 58.9346 60.0054 58.9827 59.7415C59.0308 59.4776 59.111 58.8494 59.1609 58.3456C59.2109 57.8418 59.3098 57.1744 59.3805 56.8626C59.4513 56.5507 59.51 56.1666 59.511 56.0092C59.512 55.8517 59.5706 55.5844 59.6413 55.4152C59.712 55.246 59.794 54.9038 59.8235 54.6547C59.8531 54.4055 59.9535 53.9724 60.0467 53.692C60.1399 53.4116 60.2247 52.9547 60.2352 52.6764C60.2573 52.0914 60.1716 51.9604 59.4555 51.4847C58.9845 51.1718 58.8577 50.9936 58.9674 50.7988C59.0932 50.5754 60.0469 49.7968 60.2603 49.7432C60.3787 49.7135 61.0147 49.7058 61.6735 49.7259C62.6733 49.7566 62.9393 49.7943 63.2811 49.9539C63.5064 50.0591 63.7359 50.1451 63.7911 50.1451C63.8463 50.1451 63.9957 50.1988 64.123 50.2644C64.2504 50.3301 64.6108 50.5041 64.9239 50.651C65.6038 50.9701 66.1199 51.4663 66.4496 52.118C66.6826 52.5786 66.6895 52.6297 66.6336 53.4931C66.6017 53.9863 66.5359 54.5242 66.4873 54.6884C66.4387 54.8526 66.361 55.4077 66.3145 55.9221C66.268 56.4365 66.1751 56.9861 66.1081 57.1435C65.6292 58.2678 65.3605 59.3363 65.3547 60.1393C65.3499 60.798 65.1315 62.5859 64.9662 63.3183C64.6875 64.5542 64.8919 65.6567 65.4866 66.1241C65.7152 66.3037 65.8401 66.328 66.5335 66.3278C67.2409 66.3275 67.3702 66.3009 67.8088 66.0661C68.0774 65.9222 68.5877 65.6542 68.9429 65.4704C69.2983 65.2866 69.746 65.0433 69.9379 64.9296C70.1298 64.816 70.3689 64.6852 70.4691 64.6389C70.6683 64.5468 71.1156 64.0511 71.1156 63.9225C71.1156 63.8783 71.2586 63.6431 71.4334 63.3998C71.8368 62.8384 72.0184 62.486 72.3523 61.6171C72.9015 60.188 73.1657 59.3545 73.2926 58.651C73.3359 58.4111 73.4097 58.1141 73.4566 57.991C73.5034 57.8679 73.5689 57.5342 73.6021 57.2495C73.6354 56.9647 73.719 56.5305 73.788 56.2846C73.8569 56.0387 73.9477 55.548 73.9898 55.1941C74.0318 54.8403 74.117 54.2658 74.1791 53.9176C74.2814 53.3441 74.2765 53.2389 74.1269 52.7988C73.9661 52.3259 73.966 52.3053 74.123 52.014C74.2653 51.7496 74.2708 51.675 74.1704 51.3707C74.0164 50.904 74.1643 50.5281 74.534 50.447C74.7182 50.4065 74.8209 50.3148 74.8837 50.1346C74.9769 49.8672 75.1835 49.7109 75.4501 49.706C75.6422 49.7024 75.9382 49.4658 76.0785 49.2037C76.1748 49.0239 76.2424 49.011 77.0893 49.011H77.9969L78.4002 49.3599ZM31.3344 55.1178C31.3344 55.2806 31.3577 55.3038 31.4391 55.2224C31.5205 55.1411 31.5205 55.0945 31.4391 55.0131C31.3577 54.9317 31.3344 54.9549 31.3344 55.1178ZM12.366 61.1872C12.2774 61.2757 12.2462 61.4072 12.278 61.558C12.305 61.6865 12.3443 61.8773 12.3655 61.982C12.4116 62.2114 12.7415 62.3428 12.8462 62.1734C12.8858 62.1093 12.9426 61.9128 12.9724 61.7367C13.0655 61.1856 12.6993 60.8539 12.366 61.1872ZM92.1801 66.3241C92.0623 66.4419 91.9622 66.6087 91.9578 66.6949C91.8731 68.3326 91.855 69.1319 91.8823 70.0357C91.9219 71.3441 91.9082 72.6209 91.833 74.6299C91.7739 76.209 91.8201 76.4915 92.1376 76.4915C92.3729 76.4915 92.4173 76.2661 92.386 75.2302L92.3585 74.3172L92.7914 73.8777C93.0295 73.6358 93.2748 73.4381 93.3366 73.4381C93.4226 73.4381 93.449 73.1646 93.449 72.2705C93.449 71.1763 93.438 71.1001 93.2745 71.0573C93.1058 71.0132 93.1 70.9383 93.1 68.7749V66.5382L92.8858 66.3241C92.7681 66.2063 92.6093 66.1099 92.533 66.1099C92.4566 66.1099 92.2979 66.2063 92.1801 66.3241ZM11.4966 77.149C11.3375 77.3081 11.3289 77.3597 11.4337 77.5251C11.5421 77.6961 11.832 77.6107 11.8623 77.3989C11.9013 77.1273 11.6739 76.9717 11.4966 77.149ZM49.3058 87.6613C49.4174 87.736 49.4064 87.7742 49.2306 87.9216C48.9879 88.1252 48.8728 88.136 48.654 87.9761C48.4103 87.798 48.5424 87.5706 48.8887 87.5722C49.046 87.573 49.2338 87.613 49.3058 87.6613ZM44.115 92.4676C43.7791 92.5087 42.5818 92.5337 41.4542 92.523L39.4041 92.5035L38.9082 92.7453C38.4407 92.9735 38.3608 92.985 37.5124 92.9467C37.0174 92.9244 36.5214 92.942 36.4103 92.9859C36.1142 93.1027 36.1813 93.4905 36.5331 93.6951C36.7785 93.8379 36.9158 93.8445 38.0598 93.7681C39.951 93.642 43.982 93.639 44.9002 93.7631C45.332 93.8215 46.5294 93.8753 47.561 93.8825C49.3766 93.8953 49.4503 93.9027 49.8638 94.1139C50.0988 94.2338 50.334 94.4007 50.3865 94.4846C50.5035 94.6719 51.3994 94.7105 51.3996 94.5282C51.3997 94.4683 51.5919 94.3113 51.8268 94.1793C52.2283 93.9539 52.3189 93.9393 53.3316 93.9381C54.0214 93.9373 54.4878 93.8973 54.6274 93.827C54.8728 93.7035 54.9659 93.3083 54.7975 93.1054C54.6692 92.9508 54.3511 92.9419 54.2043 93.0888C54.0933 93.1998 53.4558 93.2634 51.2886 93.3791C50.0523 93.4451 49.2226 93.362 48.477 93.0976C48.1723 92.9896 48.0726 92.9907 47.6918 93.1067C47.4519 93.1798 46.9724 93.24 46.626 93.2405C46.003 93.2415 45.9919 93.2374 45.5545 92.8489C45.3113 92.633 45.0777 92.4563 45.0352 92.4563C44.9928 92.4563 44.9057 92.442 44.8419 92.4245C44.7779 92.407 44.4509 92.4264 44.115 92.4676ZM15.1253 92.9972C15.0677 93.0548 15.0206 93.1914 15.0206 93.3008C15.0206 93.6213 15.5317 93.8186 16.5237 93.881C17.2868 93.9291 17.3811 93.9184 17.4574 93.7759C17.5178 93.663 17.5043 93.5633 17.4106 93.4295C17.301 93.273 17.1923 93.2415 16.7636 93.2415C16.4541 93.2415 16.0717 93.1718 15.8058 93.067C15.2869 92.8625 15.2625 92.86 15.1253 92.9972ZM34.0947 93.0019C33.8839 93.1582 33.9363 93.3972 34.2295 93.6159C34.4341 93.7684 34.4972 93.7769 34.7249 93.6825C34.8685 93.6231 35.0099 93.512 35.0392 93.4356C35.1641 93.11 34.4137 92.7654 34.0947 93.0019ZM20.1303 93.3785C19.9328 93.5761 19.9614 93.7541 20.2087 93.8668C20.6031 94.0465 20.9027 93.5353 20.5224 93.3317C20.3042 93.2149 20.2926 93.2163 20.1303 93.3785Z" fill="#AC1E23"/>
</svg>
