<svg width="164" height="27" viewBox="0 0 164 27" fill="none" xmlns="http://www.w3.org/2000/svg">
<path d="M14.1 1.08C14.212 1.09867 14.492 1.23867 14.94 1.5C15.4067 1.74267 15.8547 1.99467 16.284 2.256C16.508 2.49867 16.676 2.66667 16.788 2.76C16.9187 2.83467 17.0307 3.00267 17.124 3.264C17.2173 3.52533 17.2453 4.00133 17.208 4.692C17.1893 5.364 17.124 5.756 17.012 5.868C16.9187 5.96133 16.8627 6.036 16.844 6.092C16.844 6.12933 16.8347 6.18533 16.816 6.26C16.872 6.27867 16.9093 6.29733 16.928 6.316C16.9653 6.316 17.0587 6.27867 17.208 6.204C17.376 6.11067 17.572 6.02667 17.796 5.952C18.0387 5.85867 18.2627 5.84 18.468 5.896C18.6733 5.952 18.86 6.036 19.028 6.148C19.2147 6.24133 19.476 6.4 19.812 6.624L20.26 7.212L20.148 7.632C19.9053 7.8 19.4107 8.12667 18.664 8.612C17.936 9.09733 17.376 9.536 16.984 9.928V9.788H16.816L16.676 9.928L16.844 9.984L16.956 10.124C17.1613 10.2173 17.3293 10.292 17.46 10.348C17.6093 10.404 17.8893 10.4787 18.3 10.572C18.7107 10.6467 19.056 10.684 19.336 10.684C19.6347 10.6653 19.8587 10.7027 20.008 10.796C20.176 10.8893 20.4373 11.0107 20.792 11.16C20.6427 11.2907 20.4933 11.3653 20.344 11.384V11.608L19.952 11.72L20.4 11.86C20.1573 12.0093 20.0267 12.196 20.008 12.42L19.812 12.56L19.616 12.784C19.5227 12.8213 19.42 12.8493 19.308 12.868C19.2147 12.868 18.1787 13.4467 16.2 14.604C15.864 15.78 15.5653 16.9653 15.304 18.16C16.2 17.8613 17.1427 17.6373 18.132 17.488L18.664 16.116V16.368L18.832 16.2L19 16.396L19.224 16.004C19.2427 16.3213 19.2893 16.62 19.364 16.9L19.504 16.928L19.728 17.264L20.596 17.544L20.848 17.88C20.8667 17.5813 20.876 17.3387 20.876 17.152C20.8947 16.9653 20.8667 16.6293 20.792 16.144C20.736 15.6587 20.652 15.2853 20.54 15.024C20.4467 14.744 20.316 14.352 20.148 13.848C20.4653 14.0347 20.8293 14.0627 21.24 13.932L21.352 13.988C21.632 14.436 21.856 14.7907 22.024 15.052C22.192 15.3133 22.416 15.7707 22.696 16.424C22.976 17.0587 23.284 17.7307 23.62 18.44C23.956 19.1307 24.208 19.9053 24.376 20.764C24.5627 21.6227 24.6373 22.2293 24.6 22.584C24.5813 22.9387 24.5347 23.1627 24.46 23.256C24.3853 23.3493 24.2733 23.5453 24.124 23.844C23.788 24.068 23.508 24.2547 23.284 24.404C23.0787 24.5533 22.78 24.5907 22.388 24.516C21.996 24.46 21.688 24.3013 21.464 24.04C21.2587 23.7787 21.1 23.6387 20.988 23.62C20.876 23.6013 20.736 23.5733 20.568 23.536L20.736 23.396C20.7173 23.3773 20.6427 23.3027 20.512 23.172C20.4 23.0413 20.26 22.976 20.092 22.976C19.924 22.976 19.756 22.9387 19.588 22.864C19.4387 22.7893 19.2147 22.7707 18.916 22.808C18.6173 22.864 18.16 22.892 17.544 22.892C18.16 22.7613 18.6173 22.668 18.916 22.612C19.2147 22.5747 19.392 22.5373 19.448 22.5C19.504 22.4813 19.5507 22.4533 19.588 22.416C19.532 22.4347 19.308 22.4533 18.916 22.472C18.524 22.4907 18.272 22.5093 18.16 22.528L17.992 22.444C17.7493 22.5 17.572 22.528 17.46 22.528C17.348 22.528 17.2547 22.5373 17.18 22.556C17.124 22.5933 17.0867 22.5933 17.068 22.556C17.0493 22.5373 17.012 22.5373 16.956 22.556L16.872 22.696C16.816 22.696 16.7693 22.6867 16.732 22.668C16.6947 22.668 16.592 22.696 16.424 22.752C16.256 22.8267 15.9853 22.9293 15.612 23.06C16.004 22.9293 16.3587 22.7147 16.676 22.416L16.592 22.332L15.976 22.528C16.816 22.0427 17.6 21.4733 18.328 20.82C18.0853 20.8947 17.8707 21.016 17.684 21.184L17.488 21.128C17.6373 20.9787 17.8147 20.8573 18.02 20.764L18.16 20.624L18.468 20.372V20.484L18.664 20.652C18.664 20.5773 18.664 20.5213 18.664 20.484C18.664 20.4653 18.776 20.344 19 20.12C19.2427 19.9147 19.588 19.56 20.036 19.056C19.9053 19.1307 19.756 19.1493 19.588 19.112L19.7 19.056C19.6253 18.9813 19.4947 18.888 19.308 18.776C19.14 18.664 18.972 18.552 18.804 18.44C18.7107 18.496 18.608 18.552 18.496 18.608C18.104 18.4773 17.7027 18.4493 17.292 18.524L17.46 18.58L17.432 18.636C17.3387 18.6547 17.0867 18.748 16.676 18.916C16.2653 19.0653 15.8827 19.252 15.528 19.476C15.3413 19.588 15.2573 19.756 15.276 19.98L14.828 20.204L14.744 20.316L14.996 20.26L15.024 20.316L14.884 20.428L14.716 20.624H14.576L14.716 20.288L14.268 20.456C14.2493 20.5867 14.2027 20.68 14.128 20.736L14.072 20.624C13.9973 20.6427 13.932 20.652 13.876 20.652C13.8387 20.6707 13.7547 20.7173 13.624 20.792C13.512 20.8853 13.3253 21.0253 13.064 21.212C13.456 21.044 13.876 20.8947 14.324 20.764V20.848C13.9133 21.1653 13.6333 21.3613 13.484 21.436C13.3533 21.5293 13.1387 21.632 12.84 21.744C12.5413 21.856 12.336 21.9773 12.224 22.108C12.1307 22.2573 11.9813 22.3413 11.776 22.36C11.5707 22.3787 11.2253 22.5 10.74 22.724C10.2733 22.9667 9.94667 23.1533 9.76 23.284C9.592 23.4333 9.452 23.4987 9.34 23.48C9.24667 23.4613 9.16267 23.508 9.088 23.62C9.01333 23.732 8.92 23.788 8.808 23.788C8.71467 23.788 8.62133 23.8347 8.528 23.928C8.43467 24.0213 8.332 24.068 8.22 24.068C8.12667 24.0867 8.03333 24.0867 7.94 24.068C7.84667 24.068 7.75333 24.096 7.66 24.152C7.56667 24.2267 7.38 24.3387 7.1 24.488V24.74C6.932 24.852 6.80133 24.9453 6.708 25.02C6.61467 25.0947 6.49333 25.132 6.344 25.132C6.19467 25.132 6.07333 25.0947 5.98 25.02C5.88667 24.9453 5.73733 24.8333 5.532 24.684C5.532 24.5533 5.51333 24.4507 5.476 24.376C5.45733 24.32 5.42933 24.2267 5.392 24.096C5.35467 23.9653 5.308 23.8347 5.252 23.704C5.196 23.5733 5.15867 23.4427 5.14 23.312C5.14 23.2 5.07467 23.06 4.944 22.892C5 22.7613 5.04667 22.668 5.084 22.612C5.12133 22.5747 5.12133 22.5373 5.084 22.5C5.06533 22.4627 5.04667 22.3973 5.028 22.304L5.504 21.968L5.532 21.688C5.644 21.5947 5.84 21.5013 6.12 21.408C6.41867 21.3147 6.64267 21.2027 6.792 21.072C6.97867 20.8293 7.11867 20.624 7.212 20.456C7.324 20.3067 7.52 19.9613 7.8 19.42C8.09867 18.8787 8.29467 18.3747 8.388 17.908C8.5 17.4413 8.49067 17.1147 8.36 16.928C8.248 16.7413 8.192 16.6293 8.192 16.592C8.192 16.5547 8.192 16.508 8.192 16.452L8.276 16.396L8.472 16.564L8.752 16.34L8.948 15.976L9.004 16.032L9.2 15.808L9.508 15.892V15.752C9.76933 15.6773 9.97467 15.6213 10.124 15.584C10.2733 15.5467 10.404 15.4813 10.516 15.388C10.6467 15.276 10.8333 15.0987 11.076 14.856C13.0547 12.8587 14.0253 11.6173 13.988 11.132C13.9507 10.628 13.9413 9.984 13.96 9.2C13.7547 9.18133 13.5867 9.172 13.456 9.172C13.344 9.172 13.204 9.21867 13.036 9.312C12.868 9.38667 12.728 9.396 12.616 9.34C12.504 9.284 12.3453 9.21867 12.14 9.144L11.916 9.368C11.58 8.752 11.1787 8.17333 10.712 7.632L10.852 7.156C10.8893 7.156 10.9267 7.156 10.964 7.156C11.0013 7.13733 11.0387 7.11867 11.076 7.1C11.132 7.06267 11.3373 7.11867 11.692 7.268C12.0653 7.39867 12.4107 7.436 12.728 7.38C13.0453 7.324 13.484 7.24 14.044 7.128C14.0627 6.512 14.0813 6.04533 14.1 5.728C14.1373 5.41067 14.156 4.916 14.156 4.244C14.1747 3.572 14.072 2.99333 13.848 2.508C13.624 2.004 13.5213 1.70533 13.54 1.612C13.5587 1.5 13.5867 1.37867 13.624 1.248L13.904 1.36L13.848 1.136L14.1 1.08ZM7.184 1.864C7.296 1.88267 7.38 1.892 7.436 1.892C7.492 1.892 7.548 1.92933 7.604 2.004C7.66 2.06 7.744 2.144 7.856 2.256C8.09867 2.66667 8.276 2.94667 8.388 3.096C8.5 3.22667 8.57467 3.404 8.612 3.628C8.668 3.83333 8.65867 4.06667 8.584 4.328C8.50933 4.57067 8.36 4.82267 8.136 5.084C7.912 5.34533 7.8 5.52267 7.8 5.616C7.8 5.69067 7.8 5.79333 7.8 5.924L7.688 5.84L6.652 7.128L6.736 7.184L6.652 7.38V7.156C6.484 7.28667 6.4 7.44533 6.4 7.632C6.456 7.66933 6.512 7.69733 6.568 7.716C6.624 7.73467 6.86667 7.716 7.296 7.66C7.72533 7.604 8.36 7.52 9.2 7.408L10.012 8.136C10.18 8.528 10.3013 8.78933 10.376 8.92C10.4693 9.032 10.488 9.2 10.432 9.424C10.376 9.648 10.236 9.96533 10.012 10.376C9.788 10.768 9.02267 11.6733 7.716 13.092C7.47333 13.3347 7.27733 13.5213 7.128 13.652C6.97867 13.764 6.876 13.82 6.82 13.82L6.456 14.184L5.168 15.024L5.084 14.968L5.168 14.884C5.28 14.828 5.364 14.8 5.42 14.8C5.49467 14.7813 5.56933 14.7253 5.644 14.632C5.71867 14.52 5.85867 14.3707 6.064 14.184C5.76533 14.3707 5.55067 14.52 5.42 14.632C5.308 14.7253 5.21467 14.7813 5.14 14.8C5.06533 14.8187 4.95333 14.856 4.804 14.912L4.888 14.968C4.85067 14.9867 4.692 15.0147 4.412 15.052C4.132 15.0893 3.89867 15.136 3.712 15.192C3.46933 15.416 3.264 15.6587 3.096 15.92C3.04 15.752 2.99333 15.5653 2.956 15.36L2.872 16.48L3.068 16.424L3.208 16.144L3.264 16.256L4.076 15.696C4.11333 15.6213 4.16 15.5467 4.216 15.472V15.696L4.86 15.136C4.72933 15.2853 4.62667 15.416 4.552 15.528C4.496 15.6213 4.468 15.696 4.468 15.752L4.804 15.472C4.804 15.64 4.776 15.7613 4.72 15.836C4.68267 15.9107 4.42133 16.5453 3.936 17.74C3.46933 18.9347 3.21733 19.6067 3.18 19.756L3.292 19.812C3.292 19.8307 3.30133 19.8493 3.32 19.868C3.33867 19.9053 3.33867 19.9427 3.32 19.98C3.30133 20.0173 3.28267 20.1013 3.264 20.232L3.432 20.176L2.956 21.464C2.732 21.5013 2.564 21.52 2.452 21.52C2.34 21.5387 2.21867 21.5107 2.088 21.436C1.95733 21.3613 1.77067 21.24 1.528 21.072C1.37867 20.8107 1.276 20.6147 1.22 20.484C1.18267 20.372 1.12667 20.2973 1.052 20.26C0.996 20.2227 0.930667 20.148 0.856 20.036L0.884 19.756L0.688 19.532L0.408 19.196L0.492 19.112L0.296 18.972C0.296 18.9347 0.296 18.9067 0.296 18.888C0.314667 18.8507 0.296 18.7947 0.24 18.72C0.184 18.6453 0.109334 18.524 0.0160001 18.356L0.156 18.244L0.072 18.3L0.268 18.412V18.244L0.464 18.3L0.38 18.16C0.529333 17.936 0.641333 17.7867 0.716 17.712C0.809333 17.6373 0.856 17.544 0.856 17.432C0.856 17.32 0.865334 17.1333 0.884 16.872L1.276 16.564C1.68667 14.2307 1.96667 12.5227 2.116 11.44C2.26533 10.3387 2.312 9.75067 2.256 9.676C2.2 9.58267 2.144 9.48933 2.088 9.396L2.228 9.088L2.396 9.032C2.396 8.82667 2.48933 8.64 2.676 8.472L3.292 8.864L3.404 9.088L3.18 9.34L3.404 9.62L3.264 9.788H3.096C3.096 9.86267 3.04933 10.096 2.956 10.488C2.88133 10.88 2.86267 11.2627 2.9 11.636C2.93733 11.9907 3.012 12.2427 3.124 12.392C3.25467 12.5227 3.432 12.728 3.656 13.008L4.216 13.4C4.384 13.288 4.53333 13.1947 4.664 13.12C4.81333 13.0453 5.616 12.3547 7.072 11.048L8.64 9.34L8.22 9.368V9.116L8.024 9.424C7.93067 9.38667 7.856 9.368 7.8 9.368C7.744 9.368 7.65067 9.38667 7.52 9.424C7.38933 9.44267 7.24 9.46133 7.072 9.48L7.044 9.312L6.904 9.48C6.68 9.48 6.512 9.48 6.4 9.48C6.288 9.46133 6.18533 9.47067 6.092 9.508C6.01733 9.52667 5.93333 9.51733 5.84 9.48C5.74667 9.44267 5.588 9.368 5.364 9.256C5.28933 9.16267 5.224 9.088 5.168 9.032C5.112 8.95733 5.03733 8.808 4.944 8.584C4.86933 8.34133 4.84133 8.07067 4.86 7.772C4.89733 7.45467 4.95333 7.20267 5.028 7.016C5.12133 6.81067 5.24267 6.50267 5.392 6.092H5.28L5.252 6.232L5.056 6.4L4.944 6.372L4.832 6.512C4.72 6.58667 4.64533 6.64267 4.608 6.68C4.58933 6.71733 4.356 6.83867 3.908 7.044C3.47867 7.24933 3.18 7.352 3.012 7.352C2.86267 7.352 2.65733 7.38 2.396 7.436L1.528 6.764C1.34133 6.46533 1.192 6.25067 1.08 6.12C0.986667 5.98933 0.921333 5.82133 0.884 5.616C0.846667 5.41067 0.828 5.21467 0.828 5.028C0.846667 4.82267 0.865334 4.48667 0.884 4.02L1.276 4.356C1.74267 4.16933 2.10667 4.048 2.368 3.992C2.62933 3.91733 2.94667 3.77733 3.32 3.572C3.69333 3.36667 4.14133 3.14267 4.664 2.9C5.20533 2.65733 5.56933 2.46133 5.756 2.312C5.94267 2.16267 6.12 2.09733 6.288 2.116C6.47467 2.116 6.60533 2.07867 6.68 2.004C6.77333 1.92933 6.848 1.892 6.904 1.892C6.97867 1.892 7.072 1.88267 7.184 1.864ZM6.792 4.048L6.568 4.384L6.484 4.244L6.4 4.384L5.84 4.86L5.896 5.14C5.69067 5.308 5.504 5.46667 5.336 5.616C5.42933 5.616 5.49467 5.616 5.532 5.616C5.56933 5.616 5.62533 5.59733 5.7 5.56C5.77467 5.504 5.87733 5.41067 6.008 5.28C6.008 5.20533 6.092 5.06533 6.26 4.86C6.428 4.636 6.63333 4.36533 6.876 4.048H6.792ZM6.204 4.412C5.868 4.71067 5.51333 4.96267 5.14 5.168C5.27067 5.13067 5.37333 5.10267 5.448 5.084C5.52267 5.04667 5.616 4.98133 5.728 4.888C5.84 4.79467 6.008 4.64533 6.232 4.44L6.204 4.412ZM5.7 5.588L4.636 6.26L4.608 6.372L5.336 6.008L5.728 5.616L5.7 5.588ZM3.04 12.504L2.984 12.924L3.46 13.456L3.572 13.4L3.292 12.924L3.46 13.036C3.292 12.9053 3.16133 12.7373 3.068 12.532L3.04 12.504ZM12.392 14.128L13.82 13.26L13.876 12.56L12.392 14.128ZM13.26 16.032C12.476 16.4053 11.7107 16.816 10.964 17.264L10.712 17.684C10.712 17.7213 10.7307 17.768 10.768 17.824C10.824 17.8613 10.712 18.244 10.432 18.972C10.1707 19.6813 9.97467 20.1107 9.844 20.26C9.71333 20.4093 9.536 20.624 9.312 20.904L12.7 19.28C12.644 19.0187 12.5973 18.8413 12.56 18.748C12.5413 18.6547 12.5227 18.524 12.504 18.356C12.504 18.1693 12.5227 18.02 12.56 17.908L12.448 17.964L12.336 17.908L12.84 17.572L13.288 16.088L13.26 16.032ZM13.932 20.4C13.6893 20.4747 13.4747 20.596 13.288 20.764L13.96 20.428L13.932 20.4ZM35.436 2.004C35.4547 2.004 35.4733 2.01333 35.492 2.032C35.5293 2.032 35.604 2.032 35.716 2.032C35.8467 2.01333 35.9867 2.02267 36.136 2.06C36.304 2.09733 36.528 2.20933 36.808 2.396C37.088 2.58267 37.7693 3.124 38.852 4.02C38.964 4.188 39.048 4.30933 39.104 4.384C39.16 4.44 39.1973 4.524 39.216 4.636C39.2533 4.72933 39.2533 4.84133 39.216 4.972C39.1973 5.084 39.1693 5.168 39.132 5.224C39.1133 5.28 39.0573 5.38267 38.964 5.532C38.8147 5.66267 38.6373 5.80267 38.432 5.952C38.2267 6.08267 38.04 6.15733 37.872 6.176C37.704 6.19467 37.536 6.24133 37.368 6.316C37.2187 6.39067 37.088 6.44667 36.976 6.484C36.8827 6.50267 36.8173 6.53067 36.78 6.568C36.7427 6.58667 36.696 6.60533 36.64 6.624C36.6027 6.60533 36.5653 6.596 36.528 6.596C36.4907 6.596 36.3973 6.624 36.248 6.68C36.0987 6.736 35.9867 6.78267 35.912 6.82C35.968 6.67067 36.0613 6.54 36.192 6.428C36.136 6.46533 35.94 6.568 35.604 6.736C35.2867 6.904 35.1 6.99733 35.044 7.016C34.988 7.03467 34.932 7.06267 34.876 7.1C34.82 7.13733 34.7547 7.16533 34.68 7.184C34.624 7.20267 34.5773 7.22133 34.54 7.24C34.5213 7.24 34.4933 7.24933 34.456 7.268C34.4373 7.268 34.4093 7.268 34.372 7.268C34.6333 7.1 34.8667 6.91333 35.072 6.708V6.624L34.428 6.988C34.4467 6.96933 34.456 6.92267 34.456 6.848L34.092 7.016C34.092 7.05333 34.092 7.1 34.092 7.156L34.064 7.072C34.008 7.072 33.868 7.14667 33.644 7.296C33.42 7.42667 33.168 7.61333 32.888 7.856H32.972L32.86 7.912V7.856L31.208 9.284H31.152C31.096 9.228 31.0867 9.15333 31.124 9.06L30.62 9.452C30.6947 9.37733 30.732 9.30267 30.732 9.228C30.7507 9.15333 30.76 9.10667 30.76 9.088C30.76 9.05067 30.76 9.02267 30.76 9.004C30.7787 8.98533 30.7787 8.948 30.76 8.892L31.012 8.668C31.236 8.444 31.4507 8.192 31.656 7.912L31.908 7.772C31.9267 7.73467 31.9733 7.67867 32.048 7.604C32.1413 7.51067 32.2627 7.38 32.412 7.212L32.804 6.848C33.9427 5.672 34.6613 4.92533 34.96 4.608C35.2587 4.272 35.464 4.02 35.576 3.852C35.688 3.684 35.7627 3.516 35.8 3.348C35.8373 3.18 35.7813 3.00267 35.632 2.816C35.5013 2.62933 35.408 2.48933 35.352 2.396C35.296 2.284 35.268 2.20933 35.268 2.172C35.2867 2.13467 35.296 2.10667 35.296 2.088L35.436 2.004ZM48.092 5.7C48.2413 5.71867 48.3533 5.728 48.428 5.728C48.5027 5.728 48.596 5.784 48.708 5.896C48.82 5.98933 48.9413 6.07333 49.072 6.148C49.2027 6.22267 49.3147 6.25067 49.408 6.232C49.5013 6.21333 49.5947 6.24133 49.688 6.316C49.8 6.39067 50.0053 6.456 50.304 6.512C50.6213 6.54933 50.9293 6.624 51.228 6.736C51.5453 6.82933 51.732 6.92267 51.788 7.016C51.8627 7.10933 51.956 7.20267 52.068 7.296L52.488 7.8L52.656 7.968C52.7493 8.04267 52.8147 8.108 52.852 8.164C52.8893 8.20133 52.9733 8.32267 53.104 8.528C53.2533 8.73333 53.3187 8.92 53.3 9.088C53.3 9.256 53.2907 9.41467 53.272 9.564C53.272 9.71333 53.2347 9.816 53.16 9.872C53.104 9.928 53.02 10.0213 52.908 10.152C52.628 10.2827 52.3853 10.4227 52.18 10.572C52.068 10.7587 51.9653 10.9173 51.872 11.048C51.7973 11.1787 51.6947 11.4493 51.564 11.86C51.4333 12.2707 51.2933 12.6533 51.144 13.008C51.0133 13.3627 50.8827 13.7453 50.752 14.156C50.6213 14.548 50.528 14.996 50.472 15.5C50.416 15.9853 50.304 16.3213 50.136 16.508C49.9867 16.676 49.8747 16.8813 49.8 17.124C49.744 17.3667 49.716 17.544 49.716 17.656C49.716 17.7493 49.7067 17.8147 49.688 17.852C49.6693 17.8893 49.6227 17.9733 49.548 18.104C49.5667 18.104 49.5853 18.1133 49.604 18.132C49.6227 18.132 49.6133 18.1693 49.576 18.244C49.5387 18.3187 49.5013 18.44 49.464 18.608H49.408C49.3333 18.832 49.2587 19.0653 49.184 19.308C49.1093 19.5507 49.0533 19.7093 49.016 19.784C48.9787 19.8773 48.9787 19.9707 49.016 20.064L49.072 20.092C49.0533 20.2413 49.016 20.3813 48.96 20.512L49.016 20.484V20.652L49.072 20.596C49.072 20.6707 49.072 20.7173 49.072 20.736C49.0907 20.7733 49.0813 20.8573 49.044 20.988C49.0067 21.1373 48.9787 21.2493 48.96 21.324C48.96 21.3987 48.932 21.4453 48.876 21.464C48.8387 21.4827 48.8107 21.52 48.792 21.576C48.7733 21.632 48.736 21.6973 48.68 21.772C48.624 21.8653 48.568 21.9587 48.512 22.052C48.4747 22.164 48.456 22.2387 48.456 22.276C48.456 22.332 48.456 22.4067 48.456 22.5L48.596 22.444L48.624 22.556L48.54 22.612L48.4 22.808L48.456 22.5L48.372 22.556L48.232 22.444L48.176 22.584C48.1013 22.6773 48.0173 22.752 47.924 22.808L47.896 22.948C47.8587 22.9667 47.812 22.976 47.756 22.976C47.7 22.976 47.6347 23.0227 47.56 23.116C47.4853 23.2093 47.392 23.284 47.28 23.34C47.168 23.396 47.056 23.48 46.944 23.592C46.8507 23.704 46.7387 23.7693 46.608 23.788C46.4773 23.8253 46.356 23.816 46.244 23.76C46.132 23.704 46.0013 23.62 45.852 23.508C45.7213 23.396 45.6373 23.3493 45.6 23.368C45.5813 23.3867 45.5253 23.396 45.432 23.396C45.32 23.2653 45.2267 23.1627 45.152 23.088C45.096 23.032 45.04 22.9013 44.984 22.696C44.9467 22.5093 44.8907 22.3693 44.816 22.276C44.76 22.1827 44.732 22.0987 44.732 22.024C44.732 21.9493 44.7133 21.8653 44.676 21.772C44.6387 21.6787 44.5733 21.5667 44.48 21.436C44.4053 21.3053 44.3307 21.184 44.256 21.072L44.396 21.1C44.3587 21.0067 44.3307 20.932 44.312 20.876C44.2933 20.8387 44.256 20.792 44.2 20.736C44.1627 20.68 44.144 20.624 44.144 20.568C44.1627 20.512 44.172 20.4653 44.172 20.428L44.06 20.288L43.808 20.176L43.78 20.064H43.668V19.98H43.78L43.556 19.84L43.472 19.672L43.444 19.728L43.332 19.588L43.024 19.392L42.996 19.448L42.912 19.308L42.856 19.364L42.8 19.252C42.744 19.2333 42.5947 19.1493 42.352 19C42.1093 18.832 41.9507 18.7293 41.876 18.692C41.8013 18.6547 41.7173 18.5987 41.624 18.524L41.596 18.468L41.54 18.496L41.568 18.524H41.54L41.456 18.468C41.4187 18.4307 41.3907 18.4027 41.372 18.384C41.3533 18.3653 41.3347 18.3653 41.316 18.384C41.2973 18.384 41.2693 18.3747 41.232 18.356L41.176 18.3C41.12 18.3 41.064 18.2813 41.008 18.244L41.12 18.188C40.9893 18.1507 40.868 18.0947 40.756 18.02L40.728 18.104V18.048L40.532 17.908C40.588 17.908 40.6253 17.9173 40.644 17.936C40.6813 17.936 40.7933 17.9733 40.98 18.048C41.1853 18.1227 41.4467 18.216 41.764 18.328C42.0813 18.44 42.2493 18.496 42.268 18.496C42.2867 18.4773 42.3147 18.468 42.352 18.468L41.82 18.16C41.8387 18.16 41.8573 18.16 41.876 18.16C41.8947 18.1413 42.0533 18.1973 42.352 18.328C42.6507 18.4587 42.94 18.5707 43.22 18.664C43.5 18.7387 43.7147 18.7853 43.864 18.804C44.0133 18.8227 44.1813 18.86 44.368 18.916L44.396 18.832L44.228 18.748C44.3027 18.7667 44.3773 18.7573 44.452 18.72L44.536 18.832L44.564 18.72C44.508 18.7013 44.4613 18.6733 44.424 18.636C44.3867 18.5987 44.3027 18.58 44.172 18.58C44.06 18.5613 43.8733 18.5333 43.612 18.496L43.948 18.524L43.92 18.496C44.032 18.5147 44.1533 18.524 44.284 18.524V18.468C44.2093 18.412 44.1347 18.384 44.06 18.384L44.116 18.468H44.032V18.356L43.864 18.3L43.808 18.188L43.64 18.272L43.584 18.132L43.64 18.244L43.724 18.188C43.6867 18.1693 43.6587 18.1507 43.64 18.132C43.6213 18.0947 43.528 18.0573 43.36 18.02C43.2107 17.964 42.9773 17.88 42.66 17.768V17.712L42.576 17.768L42.548 17.712L42.66 17.684L42.548 17.656L42.492 17.684L42.408 17.656L42.352 17.6C42.296 17.6373 42.24 17.6373 42.184 17.6L42.128 17.544L42.072 17.572C42.0347 17.516 42.0253 17.46 42.044 17.404H42.1V17.46L42.24 17.488L42.184 17.432L42.212 17.376C42.1373 17.3573 42.072 17.32 42.016 17.264C42.2027 17.32 42.3987 17.3667 42.604 17.404C42.8093 17.4413 43.024 17.488 43.248 17.544C43.4907 17.5813 43.7053 17.6187 43.892 17.656C44.0787 17.6933 44.2093 17.712 44.284 17.712C44.3587 17.712 44.4147 17.7213 44.452 17.74C44.508 17.7587 44.5453 17.7493 44.564 17.712C44.6387 17.7867 44.7133 17.8053 44.788 17.768V17.628L43.5 17.404C43.9293 17.4973 44.3587 17.5533 44.788 17.572L44.676 17.488L45.236 17.544L45.264 17.404L44.9 17.32H45.012L44.312 17.096L45.292 17.264C45.7773 15.1547 46.02 13.9133 46.02 13.54C46.02 13.148 46.0853 12.7467 46.216 12.336C46.3467 11.9253 46.4587 11.384 46.552 10.712C46.664 10.0213 46.7107 9.61067 46.692 9.48C46.692 9.34933 46.692 9.2 46.692 9.032C46.468 9.01333 46.2813 8.99467 46.132 8.976C45.9827 8.93867 45.5907 8.93867 44.956 8.976C44.3213 8.99467 43.6307 9.04133 42.884 9.116C42.156 9.172 41.484 9.256 40.868 9.368C40.2707 9.46133 39.664 9.60133 39.048 9.788C38.4507 9.956 37.9187 10.0773 37.452 10.152C37.004 10.2267 36.6493 10.3013 36.388 10.376C36.1267 10.4507 35.912 10.488 35.744 10.488C35.576 10.488 35.408 10.516 35.24 10.572C35.0907 10.628 34.876 10.6747 34.596 10.712C34.316 10.7493 33.98 10.824 33.588 10.936C33.2147 11.0293 32.9347 11.1133 32.748 11.188C32.5613 11.2627 32.3 11.356 31.964 11.468L31.852 11.72C31.9267 11.888 32.0013 12.0373 32.076 12.168C32.1507 12.2987 32.272 12.6253 32.44 13.148C32.6267 13.6707 32.72 13.96 32.72 14.016C32.7387 14.072 32.7573 14.1373 32.776 14.212L32.86 14.296C33.0093 14.7627 33.112 15.1267 33.168 15.388C33.224 15.6307 33.2987 15.9293 33.392 16.284C33.4853 16.62 33.5507 16.8907 33.588 17.096C33.6253 17.3013 33.6813 17.5253 33.756 17.768C33.7373 17.5253 33.7187 17.3667 33.7 17.292C33.6813 17.1987 33.672 17.1333 33.672 17.096C33.6907 17.0587 33.7 17.0307 33.7 17.012C33.7187 17.0307 33.728 17.0587 33.728 17.096C33.7467 17.1147 33.7653 17.1613 33.784 17.236C33.8213 17.3107 33.84 17.3667 33.84 17.404C33.84 17.4413 33.8493 17.4787 33.868 17.516C33.8867 17.5533 33.9053 17.6 33.924 17.656H33.98C33.9987 17.824 34.0173 17.9453 34.036 18.02C34.0733 18.0947 34.0827 18.1413 34.064 18.16C34.064 18.1787 34.0453 18.2067 34.008 18.244C34.064 18.3187 34.1013 18.384 34.12 18.44C34.1573 18.496 34.176 18.5707 34.176 18.664C34.1947 18.7387 34.232 18.8787 34.288 19.084L34.008 19.056C34.008 19.1493 34.0173 19.2053 34.036 19.224C34.0547 19.2613 34.036 19.308 33.98 19.364C33.9427 19.4387 33.9147 19.5227 33.896 19.616C33.896 19.7093 33.8587 19.7933 33.784 19.868C33.728 19.9427 33.6253 20.1013 33.476 20.344C33.2893 20.456 33.1307 20.54 33 20.596C32.888 20.6707 32.7013 20.7267 32.44 20.764C32.1973 20.8013 31.9547 20.7547 31.712 20.624C31.4693 20.4933 31.264 20.3533 31.096 20.204C30.928 20.0547 30.6947 19.8307 30.396 19.532C30.3773 19.4573 30.3587 19.4013 30.34 19.364C30.34 19.3267 30.3027 19.28 30.228 19.224C30.172 19.1867 30.0973 19.1027 30.004 18.972C29.9293 18.8973 29.8733 18.8413 29.836 18.804C29.7987 18.7667 29.724 18.72 29.612 18.664C29.5187 18.608 29.4533 18.5893 29.416 18.608C29.3973 18.608 29.3693 18.608 29.332 18.608L29.248 18.524H29.108L29.248 18.356L29.136 18.328L29.108 18.16L28.996 18.104C28.94 18.0293 28.9027 17.9733 28.884 17.936C28.8653 17.88 28.8467 17.8147 28.828 17.74C28.8093 17.6467 28.8093 17.5627 28.828 17.488C28.8653 17.4133 28.912 17.2827 28.968 17.096L28.912 17.012C28.968 16.9373 28.996 16.8347 28.996 16.704L29.192 16.564L29.024 16.452V16.312C29.1173 16.2373 29.1827 16.1813 29.22 16.144C29.2573 16.1067 29.2853 16.088 29.304 16.088C29.3413 16.088 29.3693 16.088 29.388 16.088L29.248 16.004L29.332 15.976L29.248 15.892C29.2293 15.8547 29.2107 15.8267 29.192 15.808C29.192 15.7893 29.2013 15.7613 29.22 15.724C29.2387 15.6867 29.276 15.6307 29.332 15.556L29.416 15.444L29.388 15.332C29.4253 15.276 29.4627 15.2387 29.5 15.22C29.5373 15.1827 29.5373 14.912 29.5 14.408C29.4813 13.8853 29.444 13.3627 29.388 12.84C29.3507 12.2987 29.276 11.86 29.164 11.524C29.0707 11.188 28.9773 10.964 28.884 10.852C28.8093 10.7213 28.6973 10.544 28.548 10.32C28.4547 10.1893 28.3707 10.096 28.296 10.04C28.24 9.96533 28.1467 9.90933 28.016 9.872C27.8853 9.816 27.7827 9.77867 27.708 9.76C27.6333 9.72267 27.5213 9.65733 27.372 9.564L27.428 9.536L27.4 9.48C27.4373 9.40533 27.4653 9.35867 27.484 9.34C27.5213 9.32133 27.5307 9.30267 27.512 9.284C27.512 9.24667 27.512 9.2 27.512 9.144C27.568 9.10667 27.624 9.07867 27.68 9.06C27.736 9.04133 27.8853 9.032 28.128 9.032C28.3707 9.032 28.6227 9.07867 28.884 9.172C29.1453 9.24667 29.3507 9.34933 29.5 9.48C29.6493 9.61067 29.7987 9.71333 29.948 9.788C30.0973 9.86267 30.3027 9.99333 30.564 10.18L31.04 10.656C31.2453 10.6373 31.4227 10.6187 31.572 10.6C31.7213 10.5813 32.1507 10.432 32.86 10.152C33.588 9.872 34.5587 9.54533 35.772 9.172C36.9853 8.78 38.1707 8.43467 39.328 8.136C40.4853 7.81867 41.68 7.52933 42.912 7.268C44.1627 7.00667 45.0773 6.85733 45.656 6.82C46.2533 6.78267 46.5987 6.708 46.692 6.596C46.7853 6.484 46.86 6.428 46.916 6.428C46.972 6.428 47.056 6.41867 47.168 6.4C47.336 6.21333 47.5133 6.02667 47.7 5.84L48.092 5.7ZM43.416 10.404H43.36L43.416 10.6L43.444 10.488L43.5 10.572V10.684L43.584 10.656C43.7147 10.6933 43.8173 10.7307 43.892 10.768C43.9853 10.8053 44.2187 10.8707 44.592 10.964C44.9653 11.0573 45.18 11.1413 45.236 11.216C45.3107 11.2907 45.4227 11.3933 45.572 11.524C45.628 11.6547 45.6653 11.7387 45.684 11.776C45.7213 11.8133 45.7307 11.86 45.712 11.916C45.712 11.9533 45.712 12 45.712 12.056C45.712 12.112 45.6933 12.1867 45.656 12.28C45.6373 12.3547 45.5907 12.4293 45.516 12.504C45.46 12.56 45.3667 12.6813 45.236 12.868L45.124 12.98C44.6013 13.5213 44.116 14.0813 43.668 14.66L43.696 14.688L43.668 14.8L43.696 14.912L44.004 14.576L43.948 14.688L43.864 14.744L43.724 14.968L44.004 15.108C43.9667 15.1453 43.9387 15.1733 43.92 15.192C43.9013 15.192 43.892 15.2013 43.892 15.22C43.892 15.2387 43.892 15.2667 43.892 15.304H43.808L43.78 15.36L43.892 15.444V15.584L43.668 15.668L43.808 15.78L43.836 15.892L43.612 15.92L43.5 16.06C43.4067 16.0973 43.3227 16.1533 43.248 16.228L43.136 16.424C43.0613 16.4427 43.0053 16.4613 42.968 16.48C42.9307 16.48 42.8933 16.4893 42.856 16.508C42.8187 16.5267 42.772 16.5547 42.716 16.592C42.6787 16.6293 42.5853 16.676 42.436 16.732V16.648C42.324 16.648 42.2307 16.6573 42.156 16.676C42.1 16.676 42.0347 16.6853 41.96 16.704C41.904 16.704 41.848 16.7133 41.792 16.732C41.7547 16.732 41.6987 16.732 41.624 16.732C41.568 16.732 41.4933 16.7413 41.4 16.76L41.372 16.732C41.0173 16.8253 40.7467 16.8813 40.56 16.9C40.392 16.9187 40.2707 16.9373 40.196 16.956C40.14 16.9747 40.084 16.9933 40.028 17.012L40.112 16.928C39.9253 16.984 39.7387 17.0493 39.552 17.124V17.04C39.496 17.0773 39.412 17.1147 39.3 17.152C39.188 17.1893 39.0947 17.2173 39.02 17.236C38.964 17.236 38.9173 17.2547 38.88 17.292C38.8613 17.3293 38.8147 17.3667 38.74 17.404L38.712 17.348L38.6 17.432L38.572 17.488H38.488V17.572L38.432 17.488L38.292 17.628V17.572L38.152 17.6L37.9 17.852L37.788 17.936C37.7507 18.0667 37.7693 18.1787 37.844 18.272L37.984 18.104C37.984 18.1413 37.9933 18.1787 38.012 18.216C38.0307 18.2347 38.04 18.272 38.04 18.328C38.04 18.384 38.0493 18.5053 38.068 18.692L37.984 18.72L37.9 18.86L37.816 18.944L37.536 18.776V18.748L37.396 18.636L37.368 18.58L37.256 18.692L37.284 18.72L37.256 18.972C37.1627 18.9347 37.0787 18.888 37.004 18.832C36.9107 18.9253 36.8733 19.0373 36.892 19.168L36.864 19.224L36.78 19.084H36.724L36.64 19L36.584 19.056L36.388 18.832L36.248 18.86V19.252C36.2293 19.1773 36.1827 19.0747 36.108 18.944C36.0333 18.7947 35.9493 18.6453 35.856 18.496L35.66 18.3L35.632 18.16L35.52 18.104C35.4827 18.048 35.4453 17.9827 35.408 17.908L35.464 17.852L35.408 17.544L35.296 17.432C35.2773 17.32 35.268 17.2453 35.268 17.208C35.268 17.1707 35.2867 17.1147 35.324 17.04C35.38 16.9467 35.4173 16.7973 35.436 16.592C35.4547 16.368 35.4453 16.0413 35.408 15.612C35.3707 15.1827 35.3333 14.7907 35.296 14.436C35.2773 14.0627 35.2493 13.82 35.212 13.708C35.1933 13.596 35.184 13.5027 35.184 13.428C35.2027 13.3533 35.184 13.288 35.128 13.232C35.072 13.1573 35.0253 13.1013 34.988 13.064L35.072 13.036C35.016 12.8493 34.9693 12.7187 34.932 12.644C34.9133 12.5693 34.8853 12.5227 34.848 12.504C34.8293 12.4667 34.792 12.42 34.736 12.364H34.904L34.68 11.944L34.736 11.916L34.848 11.972L34.96 11.776L34.904 11.748L34.96 11.636C35.016 11.692 35.072 11.692 35.128 11.636L34.96 11.552L35.268 11.608L35.212 11.692L35.632 11.916L35.548 12.028L35.856 12.532C35.8747 12.532 35.8933 12.532 35.912 12.532C35.9493 12.532 36.22 12.4293 36.724 12.224C37.228 12.0187 37.7787 11.8227 38.376 11.636C38.9733 11.4493 39.5427 11.2813 40.084 11.132C40.6253 10.964 41.092 10.8613 41.484 10.824C41.8947 10.7867 42.1467 10.7493 42.24 10.712C42.352 10.6747 42.4267 10.628 42.464 10.572C42.5013 10.516 42.6133 10.4693 42.8 10.432C42.9867 10.376 43.0987 10.3573 43.136 10.376C43.192 10.376 43.2573 10.3853 43.332 10.404L43.36 10.32L43.416 10.404ZM41.848 12.672C41.5867 12.7093 41.4093 12.7373 41.316 12.756C41.2227 12.756 41.12 12.756 41.008 12.756C40.9147 12.756 40.756 12.784 40.532 12.84C40.3267 12.8773 40.1867 12.9147 40.112 12.952C40.0373 12.9707 39.972 12.98 39.916 12.98C39.8787 12.98 39.8133 13.008 39.72 13.064C39.6453 13.1013 38.936 13.288 37.592 13.624L37.564 13.54L37.508 13.624L37.396 13.652L37.34 13.596L37.228 13.736L37.256 13.624L37.116 13.736L37.032 13.652L36.556 13.96C36.556 14.0533 36.556 14.128 36.556 14.184C36.556 14.2213 36.5653 14.2867 36.584 14.38C36.6027 14.4547 36.612 14.5573 36.612 14.688C36.612 14.8 36.6213 14.9027 36.64 14.996C36.6773 15.0893 36.7333 15.2667 36.808 15.528L36.836 15.416L36.892 15.472C36.892 15.3787 36.892 15.3133 36.892 15.276C36.9107 15.2387 36.9107 15.22 36.892 15.22C36.892 15.2013 36.892 15.1827 36.892 15.164L36.948 14.996V15.668C36.9293 15.6307 36.9107 15.5933 36.892 15.556C36.8547 15.7053 36.8733 15.8267 36.948 15.92L37.228 15.892L37.284 15.696L37.312 15.864L39.524 15.08L39.636 14.912H39.832C39.7947 14.8 39.804 14.6787 39.86 14.548L40.112 14.716C40.168 14.66 40.2053 14.6133 40.224 14.576C40.2613 14.5387 40.2707 14.4453 40.252 14.296C40.252 14.128 40.2613 14.0347 40.28 14.016C40.2987 13.9787 40.3173 13.932 40.336 13.876L40.476 13.96L40.728 13.82L40.868 13.96L41.064 13.82C41.176 13.6707 41.26 13.5587 41.316 13.484C41.3907 13.4093 41.456 13.3253 41.512 13.232C41.568 13.12 41.68 12.9333 41.848 12.672ZM36.78 14.212C36.78 14.268 36.78 14.3147 36.78 14.352C36.7987 14.3893 36.7987 14.4173 36.78 14.436C36.78 14.4547 36.78 14.4733 36.78 14.492L36.668 14.464V14.24L36.808 14.184L36.78 14.212ZM71.64 0.0999997C71.7333 0.0999997 71.7987 0.0999997 71.836 0.0999997C71.892 0.0813321 72.0133 0.127999 72.2 0.24C72.3867 0.351999 72.5267 0.463999 72.62 0.575999C72.732 0.687999 72.9093 0.855999 73.152 1.08C73.1707 1.17333 73.1987 1.25733 73.236 1.332C73.2733 1.388 73.236 1.584 73.124 1.92C73.012 2.256 72.8813 2.48 72.732 2.592C72.5827 2.704 72.3867 2.89067 72.144 3.152C71.6587 3.46933 71.0707 3.796 70.38 4.132C69.6893 4.468 69.316 4.64533 69.26 4.664C69.204 4.68267 69.148 4.71067 69.092 4.748L69.064 5C70.52 4.45867 71.472 4.12267 71.92 3.992C72.3867 3.86133 72.676 3.75867 72.788 3.684C72.9187 3.60933 73.0773 3.544 73.264 3.488L73.46 3.656L73.488 3.544H73.656L73.852 3.712L74.72 3.936L74.86 4.16L74.496 4.608L73.908 4.86L74.02 4.972L74.188 5.168C73.4973 5.392 72.984 5.54133 72.648 5.616C72.3307 5.69067 72.088 5.76533 71.92 5.84C71.7707 5.91467 71.5747 6.02667 71.332 6.176C71.4253 6.13867 71.6493 6.07333 72.004 5.98C72.3587 5.88667 72.6293 5.80267 72.816 5.728C73.0213 5.63467 73.208 5.56933 73.376 5.532C73.544 5.49467 73.6653 5.46667 73.74 5.448C73.8333 5.41067 73.9547 5.40133 74.104 5.42C73.5253 5.62533 73.1147 5.76533 72.872 5.84C72.648 5.896 72.3493 5.98933 71.976 6.12C71.6027 6.232 71.2013 6.39067 70.772 6.596C71.0333 6.91333 71.3133 7.22133 71.612 7.52C71.724 7.48267 71.7987 7.464 71.836 7.464C71.892 7.464 72.032 7.38 72.256 7.212C72.4987 7.02533 72.6853 6.92267 72.816 6.904C72.9653 6.88533 73.1427 6.85733 73.348 6.82L73.264 6.708H73.656L73.712 6.876L73.852 6.792C74.412 7.03467 74.9813 7.16533 75.56 7.184C75.56 7.38933 75.5133 7.576 75.42 7.744C75.3267 7.912 75.168 8.22933 74.944 8.696C74.72 9.144 74.5053 9.508 74.3 9.788C74.6733 9.69467 75 9.62 75.28 9.564C75.5787 9.508 76.0267 9.452 76.624 9.396C77.24 9.32133 77.604 9.26533 77.716 9.228C77.8467 9.172 77.9773 9.10667 78.108 9.032C78.2573 9.06933 78.416 9.10667 78.584 9.144C78.6587 9.12533 78.7147 9.10667 78.752 9.088C78.808 9.05067 78.864 9.05067 78.92 9.088C78.9947 9.10667 79.0507 9.144 79.088 9.2C79.144 9.256 79.228 9.32133 79.34 9.396C79.4707 9.452 79.676 9.55467 79.956 9.704L79.704 9.48C79.76 9.48 79.8067 9.47067 79.844 9.452C79.8813 9.43333 79.9187 9.452 79.956 9.508C80.012 9.54533 80.1053 9.61067 80.236 9.704V9.928C80.0307 10.0773 79.872 10.1987 79.76 10.292C79.648 10.3667 79.4707 10.4413 79.228 10.516C78.9853 10.572 78.7987 10.6 78.668 10.6C78.5373 10.6 78.4067 10.5813 78.276 10.544C78.164 10.5067 78.0147 10.5347 77.828 10.628C77.66 10.7213 77.5387 10.7587 77.464 10.74C77.3893 10.7213 77.3147 10.7307 77.24 10.768C77.1653 10.8053 77.0347 10.852 76.848 10.908C76.68 10.964 76.3813 11.0853 75.952 11.272L75.868 11.104L75.84 11.272C75.5973 11.4213 75.3453 11.5053 75.084 11.524L75.056 11.636C74.72 11.748 74.4213 11.888 74.16 12.056L74.412 11.916L74.328 11.804L73.264 12.42L73.348 12.476L73.068 12.672C72.956 12.784 72.9093 12.924 72.928 13.092H72.788L73.068 13.344L73.012 13.176C73.3293 13.2507 73.8053 13.3067 74.44 13.344C75.0933 13.3627 75.5133 13.372 75.7 13.372L75.392 13.708C75.168 13.7827 74.9907 13.8947 74.86 14.044V14.212L74.524 14.324V14.52L74.048 14.856L73.88 15.08L73.628 15.024C73.6093 15.1547 73.5627 15.2573 73.488 15.332L73.46 15.22L73.348 15.304V15.192H73.208L73.152 15.332H72.928L72.676 15.584L72.732 15.444C72.2467 15.668 71.7893 15.892 71.36 16.116L71.276 17.096C71.5 17.1333 71.696 17.1613 71.864 17.18C72.032 17.1987 72.5267 17.32 73.348 17.544C74.1693 17.768 74.9253 18.076 75.616 18.468C76.3067 18.86 76.8293 19 77.184 18.888C77.5387 18.7573 77.8467 18.7013 78.108 18.72C78.3693 18.7387 78.5187 18.7667 78.556 18.804C78.612 18.8413 78.668 18.8787 78.724 18.916C78.7987 18.8787 78.836 18.8507 78.836 18.832C78.8547 18.8133 78.9013 18.8133 78.976 18.832C79.0507 18.8507 79.172 18.86 79.34 18.86L79.228 19.028C79.2653 19.1027 79.3027 19.1493 79.34 19.168C79.3773 19.2053 79.452 19.2893 79.564 19.42C79.6947 19.5693 79.732 19.728 79.676 19.896C79.62 20.064 79.6293 20.2227 79.704 20.372C79.7973 20.54 79.9373 20.876 80.124 21.38C80.3107 21.9027 80.3667 22.2387 80.292 22.388C80.2173 22.5373 80.208 22.6773 80.264 22.808C80.3387 22.9573 80.348 23.116 80.292 23.284C80.2547 23.452 80.1893 23.592 80.096 23.704C80.0213 23.816 79.9 23.984 79.732 24.208L78.416 24.656L78.024 24.404C77.8747 23.9187 77.7533 23.5267 77.66 23.228C77.5853 22.948 77.5293 22.78 77.492 22.724C77.4733 22.6867 77.4547 22.64 77.436 22.584C77.212 22.5467 76.9507 22.4907 76.652 22.416C76.3533 22.3413 75.9333 22.36 75.392 22.472C74.8693 22.584 74.524 22.64 74.356 22.64C74.2067 22.64 74.0853 22.668 73.992 22.724C73.8987 22.78 73.824 22.808 73.768 22.808C73.712 22.808 73.6467 22.808 73.572 22.808C74.524 22.36 75.476 21.856 76.428 21.296L76.344 21.184C76.3813 21.2213 76.4373 21.2307 76.512 21.212C76.1573 20.9693 75.7747 20.7173 75.364 20.456C74.9533 20.2133 74.5987 19.9707 74.3 19.728C74.0013 19.504 73.6747 19.28 73.32 19.056C72.9653 18.832 72.676 18.636 72.452 18.468C72.228 18.2813 71.864 18.0573 71.36 17.796C71.304 17.8333 71.2667 17.88 71.248 17.936C71.248 17.9733 71.248 18.9067 71.248 20.736C71.248 22.584 71.2853 23.62 71.36 23.844C71.4533 24.0867 71.4907 24.292 71.472 24.46C71.472 24.6467 71.5093 24.908 71.584 25.244C71.6587 25.5987 71.668 25.8507 71.612 26C71.5747 26.1493 71.5187 26.3547 71.444 26.616C71.2387 26.6533 71.0707 26.6907 70.94 26.728C70.828 26.784 70.6693 26.7747 70.464 26.7C70.2773 26.644 70.0813 26.5507 69.876 26.42C69.6893 26.2893 69.3907 26.0653 68.98 25.748L69.148 25.608L68.84 25.3L65.928 23.004C66.376 23.3027 66.6933 23.5173 66.88 23.648C67.0853 23.7973 67.2067 23.872 67.244 23.872C67.2813 23.872 67.328 23.872 67.384 23.872L66.488 23.088L66.264 22.836L67.328 23.508L67.356 23.424L67.16 23.34L66.964 23.172C67.0573 23.172 67.1693 23.172 67.3 23.172L66.6 22.584C67.2533 22.92 67.9253 23.228 68.616 23.508L68.308 23.256C68.364 23.2747 68.4947 23.3027 68.7 23.34C68.9053 23.396 69.204 23.4707 69.596 23.564L69.68 23.48L69.848 23.536C69.848 21.352 69.9133 19.1307 70.044 16.872L69.96 16.984H69.792C69.7173 17.0773 69.6613 17.1707 69.624 17.264C69.5867 17.3573 69.54 17.6933 69.484 18.272C69.428 18.8507 69.3533 19.2707 69.26 19.532C69.1853 19.7933 69.1667 20.008 69.204 20.176C69.26 20.344 69.3067 20.4467 69.344 20.484C69.232 20.8947 69.1667 21.296 69.148 21.688L69.288 21.744C69.232 21.856 69.1387 21.996 69.008 22.164C68.896 22.332 68.8307 22.4347 68.812 22.472C68.7933 22.5093 68.7747 22.5747 68.756 22.668L68.672 22.528L68.56 22.64L68.476 22.584L68.392 22.752L68.112 22.78L68.252 22.864L68.168 23.004L67.748 22.724L67.608 22.836L67.804 23.032L67.608 22.976L67.496 22.808L67.3 22.724L67.16 22.164L66.74 21.968L66.656 21.772L66.74 21.632V21.744H66.852L67.048 21.324L66.936 21.296L66.852 21.184C66.8893 21.1093 66.9267 21.044 66.964 20.988C67.0013 20.9507 66.9827 20.876 66.908 20.764C66.852 20.652 66.8613 20.54 66.936 20.428C67.0107 20.316 67.0293 20.1667 66.992 19.98C66.9733 19.812 66.9453 19.7187 66.908 19.7C66.8893 19.7 66.8707 19.672 66.852 19.616L66.936 19.7C66.8987 19.5133 66.88 19.2987 66.88 19.056C66.8987 18.832 66.88 18.5987 66.824 18.356L66.124 18.552C66.0867 18.7573 66.0773 18.9067 66.096 19C66.1147 19.0933 66.1147 19.1867 66.096 19.28C66.0773 19.392 66.0773 19.4853 66.096 19.56C66.1147 19.6533 66.0867 19.784 66.012 19.952L66.068 20.092C65.956 20.204 65.8347 20.372 65.704 20.596C65.5733 20.82 65.508 20.988 65.508 21.1L65.368 21.184C65.2187 21.3707 65.1813 21.5573 65.256 21.744C65.0133 22.136 64.8267 22.5373 64.696 22.948C64.5653 22.9853 64.472 23.004 64.416 23.004C64.36 23.004 64.2947 23.032 64.22 23.088C64.164 23.144 64.052 23.228 63.884 23.34C63.772 23.284 63.688 23.228 63.632 23.172C63.5947 23.116 63.5573 23.088 63.52 23.088C63.4827 23.1067 63.4267 23.116 63.352 23.116C63.3333 22.948 63.324 22.8267 63.324 22.752C63.3427 22.696 63.3053 22.612 63.212 22.5C63.1373 22.4067 63.156 22.164 63.268 21.772C63.38 21.3987 63.4173 21.1747 63.38 21.1C63.3613 21.0253 63.3427 20.932 63.324 20.82L63.464 20.764L63.8 20.092L64.164 19.812L64.696 18.972L64.64 18.608C64.4907 18.6267 64.36 18.5987 64.248 18.524L64.36 18.608C64.3413 18.4773 64.388 18.3747 64.5 18.3L64.808 18.244L64.836 17.852L64.668 17.824L64.78 17.656L64.92 17.6L64.948 17.432C65.004 17.376 65.0507 17.348 65.088 17.348C65.1253 17.348 65.1627 17.3387 65.2 17.32C65.256 17.2827 65.3213 17.264 65.396 17.264C65.4893 17.264 65.676 17.2267 65.956 17.152C66.2547 17.0773 66.5627 16.984 66.88 16.872L66.936 16.536L66.88 16.452C66.9173 15.8733 66.9547 15.472 66.992 15.248C67.0293 15.024 67.0293 14.8747 66.992 14.8C66.9733 14.7253 66.9547 14.632 66.936 14.52C66.768 14.632 66.5347 14.716 66.236 14.772C65.956 14.828 65.62 14.912 65.228 15.024C64.8547 15.136 64.5 15.2293 64.164 15.304C63.828 15.3787 63.464 15.5093 63.072 15.696C62.9227 15.4907 62.8107 15.3507 62.736 15.276C62.68 15.2013 62.6333 15.1173 62.596 15.024C62.5587 14.912 62.5493 14.828 62.568 14.772C62.5867 14.716 62.6053 14.632 62.624 14.52L62.96 14.268L62.568 14.016C62.1573 14.9307 61.868 15.864 61.7 16.816C61.8867 16.4613 62.0267 16.06 62.12 15.612C62.12 15.7427 62.12 15.8453 62.12 15.92C62.1387 15.9947 62.1387 16.1067 62.12 16.256C62.12 16.3867 62.0827 16.536 62.008 16.704C61.952 16.872 61.9053 17.0587 61.868 17.264C61.8493 17.4507 61.84 17.656 61.84 17.88C61.8587 18.0853 61.8867 18.4587 61.924 19L62.12 18.552L62.092 18.972L62.176 18.916C62.176 18.9533 62.1853 18.9813 62.204 19C62.2227 19 62.1667 19.196 62.036 19.588C61.924 19.98 61.8027 20.2787 61.672 20.484C61.56 20.6893 61.4013 20.9973 61.196 21.408C61.0467 21.4827 60.9253 21.548 60.832 21.604C60.7573 21.6787 60.6547 21.6973 60.524 21.66C60.412 21.6413 60.216 21.6133 59.936 21.576L58.984 20.316C58.7227 20.2413 58.4893 20.148 58.284 20.036L58.508 19.896C58.4707 19.784 58.4333 19.7093 58.396 19.672C58.3587 19.6533 58.3213 19.5787 58.284 19.448C58.2653 19.336 58.256 19.224 58.256 19.112C58.2747 19 58.312 18.8133 58.368 18.552L58.844 18.104L59.46 13.344C59.012 13.6613 58.6667 13.9133 58.424 14.1C58.1813 14.2867 57.892 14.436 57.556 14.548C57.2387 14.66 56.9867 14.8 56.8 14.968C56.632 15.1173 56.4547 15.2013 56.268 15.22C56.1 15.22 55.848 15.136 55.512 14.968C55.176 14.8 54.952 14.6507 54.84 14.52C54.728 14.3707 54.6347 14.268 54.56 14.212C54.504 14.1373 54.476 14.0347 54.476 13.904C54.476 13.7733 54.4667 13.5307 54.448 13.176C54.672 13.1573 54.868 13.1573 55.036 13.176C55.204 13.176 55.4187 13.064 55.68 12.84C55.96 12.5973 56.4267 12.2427 57.08 11.776L60.552 7.8C60.048 7.576 59.6 7.268 59.208 6.876C59.04 6.55867 58.9 6.32533 58.788 6.176C58.676 6.008 58.5827 5.80267 58.508 5.56C58.4333 5.31733 58.4053 5.15867 58.424 5.084C58.4427 5.00933 58.4613 4.92533 58.48 4.832C58.8533 5.03733 59.1427 5.20533 59.348 5.336C59.5533 5.448 60.0853 5.392 60.944 5.168C61.8027 4.92533 62.3347 4.90667 62.54 5.112C62.764 5.29867 62.9973 5.40133 63.24 5.42C63.5013 5.42 63.6973 5.476 63.828 5.588C63.9587 5.7 64.164 5.868 64.444 6.092C64.5373 6.39067 64.612 6.596 64.668 6.708C64.7427 6.80133 64.7613 6.92267 64.724 7.072C64.6867 7.20267 64.6493 7.30533 64.612 7.38C64.5933 7.436 64.5373 7.52933 64.444 7.66C63.94 7.79067 63.548 7.90267 63.268 7.996C62.988 8.07067 62.624 8.192 62.176 8.36C61.728 8.50933 61.308 8.696 60.916 8.92C60.524 9.12533 60.2253 9.312 60.02 9.48C59.8147 9.648 59.5347 9.872 59.18 10.152L59.376 10.18L59.628 9.984C59.8333 10.0587 60.02 10.1053 60.188 10.124C60.3747 10.1427 60.5613 10.1707 60.748 10.208C60.9533 10.2453 61.14 10.2827 61.308 10.32C61.476 10.3387 61.6813 10.3947 61.924 10.488C61.8867 10.6373 61.8587 10.7493 61.84 10.824C61.84 10.8987 61.84 10.992 61.84 11.104C61.8587 11.216 61.812 11.384 61.7 11.608C61.588 11.8133 61.4853 12.1867 61.392 12.728C61.2987 13.2507 61.2147 13.8013 61.14 14.38C61.084 14.94 61.056 15.3133 61.056 15.5C61.0747 15.6867 61.056 15.7987 61 15.836C60.9627 15.8733 60.9533 15.9293 60.972 16.004C60.9907 16.0787 60.9907 16.144 60.972 16.2C60.9533 16.256 60.9253 16.3867 60.888 16.592C61.2427 15.9013 61.6533 15.136 62.12 14.296C62.6053 13.456 62.9413 12.9053 63.128 12.644L62.596 13.932C62.6333 13.8947 62.6893 13.8573 62.764 13.82C62.8573 13.764 62.9787 13.7453 63.128 13.764C63.2773 13.764 63.3893 13.7453 63.464 13.708C63.5387 13.652 63.632 13.652 63.744 13.708C63.8747 13.7453 64.0987 13.736 64.416 13.68C64.7333 13.624 65.088 13.5307 65.48 13.4C65.872 13.2507 66.4413 13.008 67.188 12.672L67.272 11.972C66.7307 12.3267 66.1987 12.6627 65.676 12.98V12.84L65.396 13.092C65.3773 13.1107 65.3493 13.12 65.312 13.12C65.2933 13.1013 65.2467 13.1293 65.172 13.204C65.116 13.2787 65.004 13.3907 64.836 13.54L64.136 13.372C63.9867 12.9613 63.884 12.6813 63.828 12.532C63.7907 12.364 63.7347 12.2427 63.66 12.168C63.604 12.0933 63.5387 11.9813 63.464 11.832L63.548 11.468C63.7533 11.2627 63.968 11.0667 64.192 10.88L64.92 11.02L67.748 8.444C67.7107 8.23867 67.7293 8.024 67.804 7.8L67.496 7.912L67.468 7.996V7.94L67.608 7.856L67.692 7.66L66.684 8.304L66.488 8.528C66.432 8.584 66.376 8.64 66.32 8.696C66.264 8.752 66.1893 8.77067 66.096 8.752C66.0213 8.71467 65.9 8.71467 65.732 8.752C65.5827 8.56533 65.4613 8.42533 65.368 8.332C65.2933 8.22 65.256 8.024 65.256 7.744C65.256 7.464 65.2373 7.24 65.2 7.072C65.1627 6.904 65.144 6.75467 65.144 6.624C65.1627 6.47467 65.1907 6.36267 65.228 6.288H65.088L65.172 6.092C65.4333 6.092 65.676 5.97067 65.9 5.728L66.404 5.868L67.468 5C67.412 4.81333 67.3653 4.608 67.328 4.384C67.3093 4.16 67.3467 3.95467 67.44 3.768C67.552 3.56267 67.608 3.292 67.608 2.956C67.6267 2.60133 67.5893 2.33067 67.496 2.144C67.4027 1.95733 67.356 1.79867 67.356 1.668C67.3747 1.51867 67.3933 1.42533 67.412 1.388C67.4493 1.36933 67.4773 1.35067 67.496 1.332C67.5333 1.31333 67.608 1.29467 67.72 1.276C67.832 1.25733 67.916 1.28533 67.972 1.36C68.0467 1.43467 68.1587 1.53733 68.308 1.668L68.616 2.228L69.988 1.248L69.848 1.22C70.0347 1.07067 70.3333 0.893333 70.744 0.687999C71.1733 0.482666 71.472 0.286666 71.64 0.0999997ZM71.584 1.108C71.36 1.14533 71.1827 1.17333 71.052 1.192C70.94 1.21067 70.7533 1.276 70.492 1.388C70.2493 1.5 69.8667 1.67733 69.344 1.92L68.784 2.508L68.98 3.6L70.66 2.116L71.584 1.108ZM68.644 7.184L68.616 7.408C68.6907 7.38933 68.756 7.37067 68.812 7.352C68.868 7.31467 68.9427 7.25867 69.036 7.184C69.1293 7.09067 69.3067 6.96 69.568 6.792L68.644 7.184ZM70.044 6.96L68.672 7.996L68.644 9.032C69.1853 8.71467 69.7733 8.416 70.408 8.136C70.408 7.912 70.408 7.75333 70.408 7.66C70.408 7.548 70.38 7.45467 70.324 7.38C70.268 7.30533 70.1933 7.17467 70.1 6.988L70.044 6.96ZM71.612 9.2L71.472 9.452L71.612 9.536L71.472 9.592L71.416 10.908C71.5467 10.684 71.6493 10.516 71.724 10.404C71.7987 10.292 71.8827 10.124 71.976 9.9C72.0693 9.676 72.228 9.30267 72.452 8.78L71.612 9.2ZM67.636 8.864L66.6 9.816L66.628 9.732L65.368 10.824L67.58 9.648L67.692 8.892L67.636 8.864ZM69.764 10.236C69.6893 10.404 69.6147 10.5253 69.54 10.6C69.484 10.6747 69.4653 10.7773 69.484 10.908C69.5213 11.0387 69.54 11.272 69.54 11.608L69.624 11.384V11.58L69.68 11.412V11.552L70.24 11.356C70.296 10.908 70.3427 10.5907 70.38 10.404C70.436 10.2173 70.4453 10.1147 70.408 10.096C70.3707 10.0587 70.3333 10.012 70.296 9.956L69.764 10.236ZM76.372 10.404C76.1667 10.5347 75.952 10.5533 75.728 10.46L75.672 10.6L75.224 10.768L75.196 10.852L73.908 11.356L73.796 11.58L73.656 11.524L73.432 11.72V12.056L73.488 11.972C73.6 11.9347 73.684 11.8973 73.74 11.86C73.8147 11.804 74.132 11.6267 74.692 11.328C75.252 11.0293 75.812 10.7213 76.372 10.404ZM69.344 10.544L69.232 10.712L68.616 11.16L68.532 12.056L68.84 12L68.98 11.748L69.176 11.692L69.232 11.804L69.344 11.104L69.4 11.272V10.572L69.344 10.544ZM69.68 13.12L69.736 13.372C69.68 13.4093 69.6427 13.456 69.624 13.512C69.6053 13.568 69.6053 13.8573 69.624 14.38C69.6613 14.884 69.708 15.1733 69.764 15.248L69.904 14.996L69.988 15.164L70.128 13.316L69.82 13.372L69.792 13.344L70.1 13.288L70.128 13.064H69.876L69.68 13.12ZM72.368 13.176L72.788 13.652V13.54L72.48 13.148L72.368 13.176ZM72.284 13.316L71.92 13.596V13.372C71.696 13.5213 71.4627 13.5773 71.22 13.54V14.576L72.62 13.96L72.284 13.344V13.316ZM69.568 13.568C69.456 14.016 69.4467 14.464 69.54 14.912L69.596 13.596L69.568 13.568ZM68.756 13.876L68.532 15.22L68.644 15.164L68.868 14.044L68.784 13.932L68.756 13.876ZM68.476 13.988C68.4573 14.1933 68.4387 14.3427 68.42 14.436C68.42 14.5107 68.42 14.5667 68.42 14.604C68.4387 14.6227 68.4573 14.6507 68.476 14.688L68.532 13.988H68.476ZM69.456 17.264C69.4 17.5253 69.3627 17.7027 69.344 17.796C69.3253 17.8707 69.316 17.936 69.316 17.992C69.3347 18.0293 69.3533 18.0853 69.372 18.16L69.596 17.208L69.456 17.264ZM69.176 17.376H68.98C68.9987 17.4507 69.0267 17.516 69.064 17.572C69.1013 17.6093 69.1013 17.6653 69.064 17.74C69.0267 17.8147 68.9987 17.9267 68.98 18.076L69.12 17.908C69.12 18.0947 69.1013 18.216 69.064 18.272C69.0267 18.328 69.008 18.384 69.008 18.44C69.008 18.496 68.9987 18.5427 68.98 18.58C68.98 18.5987 68.98 18.6453 68.98 18.72V18.384L68.896 18.356C68.8027 18.972 68.7373 19.4013 68.7 19.644C68.6813 19.9053 68.672 20.092 68.672 20.204C68.672 20.316 68.6813 20.3907 68.7 20.428C68.7373 20.484 68.756 20.54 68.756 20.596C68.7747 20.6707 68.812 20.7827 68.868 20.932C68.9053 20.7827 68.9333 20.6707 68.952 20.596C68.9893 20.54 68.9987 20.4467 68.98 20.316C68.98 20.204 68.98 19.9987 68.98 19.7L68.896 19.644L68.952 19.28L69.008 19.392C69.008 19.224 69.0267 19.0933 69.064 19C69.1013 18.9067 69.1293 18.7013 69.148 18.384C69.1853 18.0667 69.204 17.712 69.204 17.32L69.176 17.376ZM92.724 1.416C93.4707 1.60267 93.9933 1.724 94.292 1.78C94.5907 1.836 94.8427 1.87333 95.048 1.892C95.2533 1.892 95.44 1.98533 95.608 2.172C95.7947 2.34 96.1493 2.61067 96.672 2.984L97.512 4.02L97.428 4.356C97.1293 4.61733 96.784 4.73867 96.392 4.72L96.308 4.524L96.112 4.468L96.028 4.272L96.084 4.608C96.0093 4.57067 95.944 4.54267 95.888 4.524C95.8507 4.48667 95.776 4.44933 95.664 4.412C95.5707 4.356 95.4773 4.356 95.384 4.412C95.3093 4.468 95.188 4.51467 95.02 4.552L94.936 4.412C94.7307 4.468 94.5533 4.496 94.404 4.496C94.2733 4.496 94.068 4.58933 93.788 4.776C93.508 4.944 93.06 5.224 92.444 5.616L92.5 5.448L91.324 6.092L91.436 5.924L91.1 5.98L92.668 4.776C93.0413 4.34667 93.3027 4.05733 93.452 3.908C93.6013 3.74 93.6853 3.60933 93.704 3.516C93.7227 3.404 93.7693 3.264 93.844 3.096L93.592 2.984C93.4427 2.85333 93.2373 2.61067 92.976 2.256C92.7147 1.88267 92.584 1.64933 92.584 1.556L92.724 1.416ZM98.324 4.748C98.5853 4.748 98.9867 4.76667 99.528 4.804C100.088 4.84133 100.499 4.888 100.76 4.944C101.021 4.98133 101.199 5 101.292 5C101.385 4.98133 101.479 5 101.572 5.056L101.6 4.86C101.749 4.86 101.852 4.87867 101.908 4.916C101.983 4.93467 102.048 4.944 102.104 4.944C102.16 4.944 102.216 4.95333 102.272 4.972C102.328 4.99067 102.375 5 102.412 5L102.524 4.86L102.72 5C102.664 5.24267 102.739 5.42 102.944 5.532L103.896 6.316C103.933 6.484 103.943 6.60533 103.924 6.68C103.924 6.75467 103.933 6.848 103.952 6.96C103.989 7.05333 103.999 7.14667 103.98 7.24C103.98 7.33333 103.999 7.408 104.036 7.464C104.073 7.52 104.101 7.62267 104.12 7.772C103.952 7.884 103.812 7.97733 103.7 8.052C103.607 8.12667 103.495 8.164 103.364 8.164C103.252 8.14533 103.047 8.14533 102.748 8.164L102.832 7.996L102.636 7.856V7.632L101.796 7.464L101.88 7.38L101.712 7.268L101.6 7.072C101.395 7.128 101.115 7.22133 100.76 7.352C100.424 7.464 100.125 7.55733 99.864 7.632C99.6027 7.70667 99.3507 7.79067 99.108 7.884C98.8653 7.95867 98.6787 8.01467 98.548 8.052C98.4173 8.08933 98.24 8.18267 98.016 8.332L97.904 8.192L97.764 8.332L97.96 8.528C97.8853 8.752 97.8387 8.91067 97.82 9.004C97.82 9.09733 97.8293 9.27467 97.848 9.536C97.8853 9.77867 97.8293 10.236 97.68 10.908C97.5307 11.58 97.4653 11.9813 97.484 12.112C97.5213 12.224 97.5493 12.3547 97.568 12.504L97.68 12.616L97.904 13.288L98.044 13.204L97.82 12.476C98.0813 12.8493 98.3613 13.204 98.66 13.54L98.744 13.484C98.8187 13.5213 98.9587 13.5493 99.164 13.568C99.3693 13.5867 99.6867 13.596 100.116 13.596C100.545 13.5773 101.031 13.596 101.572 13.652C102.113 13.6893 102.552 13.7547 102.888 13.848C102.776 14.016 102.72 14.2027 102.72 14.408L103.056 14.688L103.112 15.192L102.832 15.388L102.804 15.584C102.636 15.696 102.477 15.7613 102.328 15.78L102.132 16.032L101.684 15.836L101.74 16.032L101.516 15.836C100.321 16.0787 99.1547 16.3587 98.016 16.676C98.072 16.7133 98.128 16.7413 98.184 16.76C98.2587 16.76 98.7067 17.0867 99.528 17.74C100.368 18.3747 101.012 18.748 101.46 18.86C101.927 18.972 102.328 19.1213 102.664 19.308C103 19.4947 103.467 19.6347 104.064 19.728C104.68 19.8213 105.025 19.9053 105.1 19.98C105.175 20.0547 105.259 20.0827 105.352 20.064C105.445 20.064 105.539 20.0733 105.632 20.092C105.725 20.1293 105.856 20.1947 106.024 20.288H105.8C105.949 20.344 106.164 20.4 106.444 20.456C106.724 20.5307 106.957 20.624 107.144 20.736L107.172 20.82L107.284 20.624L107.34 20.764L107.564 20.708L107.676 20.82C107.527 20.8387 107.349 20.8293 107.144 20.792C106.957 20.7547 106.836 20.7547 106.78 20.792L106.864 20.932L106.08 20.96L106.164 21.1L106.864 21.184L106.696 21.212L106.92 21.464L107.256 21.548C106.995 21.5667 106.761 21.5387 106.556 21.464L106.472 21.576L106.36 21.464H106.164L106.108 21.632C105.828 21.632 105.576 21.6787 105.352 21.772L105.884 21.8L105.464 21.94C105.595 21.9773 105.725 22.052 105.856 22.164L105.688 22.304C105.837 22.304 105.94 22.3133 105.996 22.332C106.052 22.3507 106.127 22.36 106.22 22.36C106.332 22.3787 106.425 22.388 106.5 22.388L106.416 22.444L106.78 22.528L106.248 22.584L106.472 22.752C106.416 22.7333 106.36 22.7427 106.304 22.78C106.248 22.8173 106.136 22.8827 105.968 22.976C105.8 23.0693 105.613 23.1627 105.408 23.256C105.315 23.4053 105.24 23.5173 105.184 23.592C105.128 23.6667 105.091 23.816 105.072 24.04C105.072 24.264 104.988 24.4413 104.82 24.572C104.671 24.7027 104.456 24.9267 104.176 25.244C103.877 25.3373 103.625 25.412 103.42 25.468C103.215 25.5427 102.944 25.58 102.608 25.58C102.291 25.5987 102.029 25.552 101.824 25.44C101.619 25.3467 101.395 25.216 101.152 25.048C100.797 24.7493 100.545 24.404 100.396 24.012L99.948 23.704L99.444 23.004L99.556 22.864L99.416 22.64L99.36 22.808C99.3413 22.752 99.332 22.7053 99.332 22.668C99.3507 22.6493 99.0893 22.2387 98.548 21.436C98.0253 20.652 97.6987 20.1013 97.568 19.784C97.456 19.4667 97.3533 19.252 97.26 19.14C97.1853 19.028 97.12 18.9067 97.064 18.776C97.0267 18.6453 96.9613 18.4027 96.868 18.048L96.756 18.16C96.7373 18.1227 96.7093 17.9453 96.672 17.628C96.6533 17.3107 96.644 17.0587 96.644 16.872H96.196L95.86 17.32C95.8787 17.3573 95.7853 17.572 95.58 17.964C95.3933 18.3373 95.2907 18.5613 95.272 18.636C95.272 18.7107 95.244 18.832 95.188 19L95.104 19.028C95.0107 19.14 95.0107 19.224 95.104 19.28C94.9547 19.56 94.8707 19.84 94.852 20.12L94.908 20.148L95.076 19.868C94.9827 20.148 94.9173 20.372 94.88 20.54C94.8427 20.708 94.8053 20.9507 94.768 21.268C94.7493 21.5853 94.684 21.8187 94.572 21.968C94.4787 22.136 94.3667 22.388 94.236 22.724C93.1347 23.3213 92.0147 23.844 90.876 24.292C90.8387 24.2547 90.8107 24.2267 90.792 24.208C90.792 24.1893 90.736 24.1613 90.624 24.124C90.512 24.0867 90.3627 24.0213 90.176 23.928L90.12 24.012L90.008 23.956C89.7093 24.068 89.448 24.0773 89.224 23.984V23.872C89.5413 23.9653 89.8587 23.956 90.176 23.844C89.84 23.6387 89.5413 23.4147 89.28 23.172L89.168 22.864C88.776 22.6213 88.4867 22.4347 88.3 22.304C88.1133 22.192 87.8707 22.08 87.572 21.968C87.292 21.856 86.8253 21.66 86.172 21.38L86.592 21.408L86.48 21.296L87.348 21.408L86.816 21.072C87.3573 21.24 87.7773 21.3707 88.076 21.464C88.3747 21.576 88.6827 21.632 89 21.632C89.336 21.6507 89.6067 21.6413 89.812 21.604C90.036 21.5667 90.316 21.5387 90.652 21.52L90.904 21.268L91.296 20.96C91.744 20.4373 92.0707 20.0733 92.276 19.868C92.4813 19.6813 92.6307 19.448 92.724 19.168C92.836 18.9067 93.0413 18.4773 93.34 17.88L93.144 17.936L93.284 17.852L93.004 17.88L92.864 18.02C92.752 18.02 92.4907 18.0947 92.08 18.244C91.688 18.3933 91.1093 18.6267 90.344 18.944C89.5973 19.2427 89.14 19.42 88.972 19.476H89.224L89.196 19.532L88.888 19.588L88.86 19.728C88.7853 19.784 88.7107 19.8307 88.636 19.868L88.552 20.036C88.3093 20.1293 88.0947 20.26 87.908 20.428L87.796 20.596L87.6 20.736L87.264 20.596L87.208 20.708L87.04 20.428L86.816 20.26C86.592 19.756 86.5827 19.2427 86.788 18.72L86.592 18.636L86.788 18.524L86.704 18.384C86.7413 18.3467 86.76 18.3187 86.76 18.3C86.7787 18.2627 86.7693 18.2253 86.732 18.188C86.7133 18.1507 86.676 18.0947 86.62 18.02L86.984 17.908L87.068 18.02L87.012 17.768H86.788V17.264L86.984 17.152L87.012 17.18L86.844 17.236L86.816 17.6L87.012 17.432L87.152 17.488L87.236 17.46C87.1987 17.3293 87.1707 17.2173 87.152 17.124C87.152 17.0307 87.152 16.9747 87.152 16.956C87.152 16.9373 87.1427 16.9187 87.124 16.9H87.208L87.348 17.012V16.816L87.516 16.928L87.656 17.124L87.74 16.76L87.908 16.788L88.02 16.648C88.0573 16.648 88.0853 16.6387 88.104 16.62C88.1227 16.5827 88.2067 16.5453 88.356 16.508C88.5053 16.4707 88.664 16.4893 88.832 16.564C89 16.62 89.2893 16.508 89.7 16.228C90.1293 15.9293 90.9787 15.248 92.248 14.184L93.032 13.344H92.864C92.864 13.232 92.836 13.1387 92.78 13.064L92.612 13.288C92.3507 13.3253 92.108 13.3627 91.884 13.4L91.772 13.54L91.66 13.484C91.5107 13.54 91.38 13.5867 91.268 13.624C91.1747 13.6427 91.0347 13.7267 90.848 13.876C90.68 14.0253 90.54 14.1 90.428 14.1C90.3347 14.0813 90.2133 14.0627 90.064 14.044C89.9707 13.9133 89.896 13.708 89.84 13.428C89.784 13.1293 89.7467 12.9427 89.728 12.868C89.7093 12.7933 89.7 12.7467 89.7 12.728H89.896L89.784 12.504L90.064 12.308L90.092 11.972L89.952 12.056L89.924 11.972L90.176 11.86L90.288 11.776L90.372 11.832L90.428 11.776C90.5213 11.7573 90.596 11.7387 90.652 11.72C90.708 11.7013 90.848 11.6827 91.072 11.664C91.296 11.6267 91.5293 11.5147 91.772 11.328C92.0333 11.1227 92.4253 10.8053 92.948 10.376L93.032 10.208C92.92 10.208 92.8267 10.2173 92.752 10.236C92.696 10.236 92.6307 10.2267 92.556 10.208C92.4813 10.1707 92.36 10.1893 92.192 10.264C92.0427 10.32 91.8933 10.292 91.744 10.18C91.6133 10.0493 91.408 9.89067 91.128 9.704L90.792 9.2L90.96 8.92C91.2213 8.88267 91.464 8.836 91.688 8.78C91.912 8.70533 92.2667 8.668 92.752 8.668C93.2373 8.668 93.62 8.59333 93.9 8.444C94.1987 8.276 94.4693 8.276 94.712 8.444C94.9547 8.612 95.3187 8.81733 95.804 9.06L95.944 9.508C95.9813 9.228 96.0187 9.01333 96.056 8.864C96.0933 8.696 96.0933 8.37867 96.056 7.912C96.0187 7.44533 95.9813 7.20267 95.944 7.184C95.9067 7.16533 95.8693 7.13733 95.832 7.1C95.944 7.24933 96.0933 7.31467 96.28 7.296L96.308 7.016L96.476 7.156L96.532 6.792H96.7L96.728 6.624C96.8213 6.624 96.8867 6.624 96.924 6.624C96.9613 6.60533 97.036 6.61467 97.148 6.652C97.2787 6.68933 97.456 6.72667 97.68 6.764C97.736 6.83867 97.7547 6.91333 97.736 6.988C97.736 7.06267 97.736 7.156 97.736 7.268C97.7547 7.36133 97.7547 7.45467 97.736 7.548C97.736 7.64133 97.736 7.8 97.736 8.024C98.7627 7.55733 99.724 6.96933 100.62 6.26C100.471 6.148 100.349 6.036 100.256 5.924C100.163 5.812 99.9107 5.728 99.5 5.672C99.108 5.616 98.5667 5.57867 97.876 5.56C97.204 5.54133 96.4293 5.60667 95.552 5.756C94.6933 5.88667 93.9093 6.08267 93.2 6.344C92.4907 6.58667 91.828 6.876 91.212 7.212C90.6147 7.52933 90.1853 7.8 89.924 8.024C89.6627 8.22933 89.3547 8.50933 89 8.864C89.0187 9.16267 89.0373 9.424 89.056 9.648C89.0933 9.872 89.0933 10.572 89.056 11.748C89.0373 12.924 89.0933 13.7453 89.224 14.212C89.3547 14.66 89.364 14.9307 89.252 15.024C89.1587 15.1173 89.0747 15.248 89 15.416L88.412 15.584C88.1507 15.3973 87.8707 15.2387 87.572 15.108C87.3853 14.884 87.236 14.7347 87.124 14.66C87.0307 14.5853 86.9747 14.464 86.956 14.296C86.956 14.1093 86.872 13.8667 86.704 13.568C86.536 13.2507 86.4333 13.0547 86.396 12.98L86.284 12.952L86.06 12.588L86.116 12.308L85.92 12.364C85.8267 12.308 85.724 12.2613 85.612 12.224L85.5 11.972L85.416 12.028L85.472 11.804H85.612L85.584 11.636L85.668 11.468H85.92L86.088 11.104L85.92 10.992L86.116 10.684C86.2467 10.5533 86.34 10.46 86.396 10.404C86.452 10.348 86.5267 10.32 86.62 10.32C86.7133 10.32 86.8347 10.292 86.984 10.236C87.0027 10.1053 87.068 9.984 87.18 9.872C87.292 9.74133 87.3667 9.33067 87.404 8.64C87.4413 7.93067 87.432 7.38 87.376 6.988C87.32 6.596 87.3107 6.38133 87.348 6.344C87.3853 6.30667 87.4133 6.25067 87.432 6.176L87.684 6.036L88.748 6.932C88.748 7.34267 88.8133 7.75333 88.944 8.164C89.392 7.828 89.756 7.55733 90.036 7.352C90.316 7.128 90.8293 6.80133 91.576 6.372C92.3227 5.94267 93.116 5.63467 93.956 5.448C94.8147 5.26133 96.2707 5.028 98.324 4.748ZM97.568 8.836L97.4 9.312V8.892C97.3627 8.98533 97.3347 9.06 97.316 9.116C97.316 9.172 97.316 9.256 97.316 9.368C97.316 9.46133 97.2973 9.54533 97.26 9.62C97.2413 9.69467 97.204 9.788 97.148 9.9L97.288 9.76L97.344 10.012L97.176 10.124V10.264L97.428 10.04L97.624 8.836H97.568ZM97.344 10.18C97.12 10.4973 97.036 10.824 97.092 11.16L97.176 11.104L97.148 10.936L97.288 10.824L97.372 10.208L97.344 10.18ZM95.048 10.208L94.936 10.32C94.7493 10.3573 94.5813 10.3853 94.432 10.404C94.3013 10.404 94.0867 10.516 93.788 10.74C93.4893 10.9453 92.9853 11.2907 92.276 11.776L92.164 11.916C92.6307 11.804 92.976 11.7293 93.2 11.692C93.424 11.6547 93.5827 11.5987 93.676 11.524C93.788 11.4493 93.9 11.4027 94.012 11.384C94.124 11.3467 94.292 11.2813 94.516 11.188L94.628 11.272C94.7587 11.272 94.8427 11.2533 94.88 11.216C94.936 11.16 95.0107 11.1693 95.104 11.244C95.216 11.3187 95.356 11.412 95.524 11.524L95.608 11.384V11.552L95.776 11.3C95.7387 11.2813 95.7107 11.244 95.692 11.188C95.692 11.132 95.7013 11.0573 95.72 10.964C95.7387 10.852 95.7667 10.6653 95.804 10.404C95.7853 10.3667 95.7573 10.3293 95.72 10.292C95.7013 10.2547 95.6453 10.236 95.552 10.236C95.4587 10.236 95.3187 10.236 95.132 10.236L95.048 10.208ZM97.428 12.392C97.372 12.448 97.3067 12.4853 97.232 12.504C97.1387 13.0453 97.0173 13.5587 96.868 14.044H96.98L96.84 14.1C96.784 14.3053 96.7467 14.4453 96.728 14.52C96.728 14.5947 96.7187 14.6507 96.7 14.688C96.6813 14.7067 96.6627 14.7347 96.644 14.772L97.82 14.492C97.8013 14.3053 97.764 14.044 97.708 13.708C97.652 13.372 97.5587 12.9333 97.428 12.392ZM94.964 13.568C94.908 13.6053 94.852 13.6333 94.796 13.652C94.74 13.652 94.656 13.6987 94.544 13.792C94.432 13.8853 94.2267 14.0253 93.928 14.212L93.508 14.688C93.2653 14.8373 93.032 14.968 92.808 15.08L92.864 15.248C92.5093 15.4907 92.1453 15.696 91.772 15.864H91.912C91.8373 15.9013 91.7347 15.948 91.604 16.004C91.4733 16.06 91.3333 16.1253 91.184 16.2L91.296 16.284L90.96 16.452L90.848 16.536C90.624 16.648 90.4093 16.7413 90.204 16.816C90.316 16.816 90.4653 16.7973 90.652 16.76C90.8573 16.7227 91.184 16.6387 91.632 16.508C92.0987 16.3587 93.004 16.0507 94.348 15.584L94.964 13.568ZM94.74 13.736H94.712H94.74ZM95.104 17.852C94.8613 18.0387 94.712 18.2627 94.656 18.524L94.908 18.188L95.244 17.936L95.104 17.852ZM117.728 0.771999C117.747 0.771999 117.775 0.771999 117.812 0.771999C117.868 0.753333 117.971 0.771999 118.12 0.827999C118.269 0.883999 118.559 0.921332 118.988 0.939999C119.417 0.958665 119.688 1.00533 119.8 1.08C119.931 1.15467 120.061 1.23867 120.192 1.332L120.668 1.892L120.5 2.732L120.276 2.928C119.623 4.81333 119.193 6.064 118.988 6.68C118.783 7.27733 118.615 7.72533 118.484 8.024C118.372 8.32267 118.241 8.77067 118.092 9.368C118.428 9.256 118.689 9.172 118.876 9.116C119.081 9.04133 119.333 9.004 119.632 9.004C119.931 8.98533 120.127 9.01333 120.22 9.088C120.332 9.16267 120.463 9.228 120.612 9.284C120.687 9.48933 120.771 9.65733 120.864 9.788C120.957 9.9 121.004 10.152 121.004 10.544C121.023 10.9173 120.995 11.3747 120.92 11.916C120.845 12.4387 120.808 12.756 120.808 12.868C120.808 12.98 120.808 13.092 120.808 13.204C120.995 12.8307 121.135 12.5693 121.228 12.42C121.321 12.252 121.349 12.1307 121.312 12.056C121.293 11.9813 121.265 11.8693 121.228 11.72L121.368 11.692L121.396 11.524H121.564C122.759 8.48133 123.701 6.41867 124.392 5.336C125.101 4.25333 125.727 3.36667 126.268 2.676C126.809 1.96667 127.164 1.49067 127.332 1.248C127.444 1.15467 127.593 1.052 127.78 0.939999L128.116 1.248L128.032 1.92L127.64 2.144L126.912 3.348C127.696 3.796 128.349 4.14133 128.872 4.384C129.395 4.62667 130.225 5.23333 131.364 6.204C132.503 7.156 133.408 7.83733 134.08 8.248C134.752 8.65867 135.359 9.004 135.9 9.284C136.441 9.564 137.393 10.376 138.756 11.72L138.476 11.58L138.644 11.86L138.476 11.944L138.84 12.364L138.42 12.224V12.364L138.112 12.476C138.168 12.644 138.224 12.812 138.28 12.98C138.168 12.9613 138.084 12.9427 138.028 12.924C137.972 12.8867 137.841 12.8493 137.636 12.812C137.449 12.7747 137.3 12.784 137.188 12.84C137.076 12.896 136.927 12.9427 136.74 12.98C136.74 13.0547 136.74 13.1107 136.74 13.148C136.74 13.1667 136.731 13.204 136.712 13.26C136.693 13.316 136.619 13.3907 136.488 13.484C136.357 13.5773 136.301 13.6613 136.32 13.736C136.339 13.8107 136.329 13.876 136.292 13.932C136.255 13.9693 136.236 14.0253 136.236 14.1C136.236 14.1747 136.236 14.324 136.236 14.548C136.012 14.66 135.797 14.7907 135.592 14.94L135.564 15.108C135.377 15.108 135.219 15.1173 135.088 15.136C134.976 15.1547 134.836 15.136 134.668 15.08C134.519 15.024 134.267 14.9307 133.912 14.8C133.613 14.4453 133.203 13.932 132.68 13.26C132.176 12.588 131.401 11.4773 130.356 9.928L130.104 9.9L130.16 10.152L129.908 10.32L130.188 10.432C129.684 10.7307 129.161 11.0013 128.62 11.244V11.328C128.471 11.3093 128.331 11.356 128.2 11.468C128.069 11.5613 127.724 11.7293 127.164 11.972C126.623 12.196 125.531 12.728 123.888 13.568V13.764C123.832 13.7267 123.739 13.6987 123.608 13.68C123.477 13.6427 123.365 13.624 123.272 13.624C123.179 13.624 123.095 13.6147 123.02 13.596C122.964 13.5587 122.917 13.5493 122.88 13.568C122.843 13.568 122.787 13.5587 122.712 13.54L122.796 13.372L122.404 13.148L122.124 13.288C121.284 14.7253 120.733 15.612 120.472 15.948C120.211 16.284 120.089 16.7413 120.108 17.32C120.145 17.88 120.089 18.3653 119.94 18.776C119.791 19.1867 119.763 19.476 119.856 19.644C119.968 19.8307 119.987 20.008 119.912 20.176C119.837 20.344 119.753 20.484 119.66 20.596C119.567 20.708 119.511 20.82 119.492 20.932C119.473 21.044 119.473 21.1373 119.492 21.212C119.511 21.2867 119.539 21.3987 119.576 21.548L119.436 21.66C119.38 21.996 119.249 22.2853 119.044 22.528L118.792 22.752L118.596 23.452L118.456 23.508L117.644 23.2C117.364 22.8827 117.149 22.6587 117 22.528C116.869 22.416 116.804 22.332 116.804 22.276C116.804 22.22 116.804 22.136 116.804 22.024L116.972 21.94C116.879 21.7907 116.832 21.632 116.832 21.464L116.384 21.1L116.636 21.184C116.543 21.0347 116.449 20.8947 116.356 20.764L116.076 20.652L115.936 20.484C115.619 20.3347 115.301 20.1573 114.984 19.952L115.012 19.868L113.836 19.476V19.392C114.639 19.56 115.227 19.6813 115.6 19.756C115.992 19.8493 116.3 19.8867 116.524 19.868C116.748 19.868 117.056 19.8773 117.448 19.896C117.504 19.8027 117.56 19.7 117.616 19.588C117.691 19.4947 117.803 19.2147 117.952 18.748C118.12 18.2627 118.307 17.348 118.512 16.004C118.717 14.66 118.829 13.764 118.848 13.316C118.885 12.868 118.932 12.2893 118.988 11.58C118.839 11.5987 118.708 11.636 118.596 11.692C118.484 11.748 118.195 11.9253 117.728 12.224C117.28 12.5227 116.123 13.5587 114.256 15.332L113.444 16.2C113.239 16.3867 113.071 16.536 112.94 16.648C112.828 16.7413 112.688 16.788 112.52 16.788C112.371 16.788 112.249 16.7507 112.156 16.676C112.063 16.5827 111.923 16.4707 111.736 16.34L110.98 14.912L110.616 14.66C110.653 14.5853 110.672 14.52 110.672 14.464C110.691 14.408 110.747 14.296 110.84 14.128C110.952 13.96 111.045 13.792 111.12 13.624C111.195 13.4373 111.279 13.288 111.372 13.176C111.465 13.0453 111.521 12.896 111.54 12.728L111.904 12.42C113.117 9.13467 113.715 7.464 113.696 7.408C113.696 7.33333 113.696 7.24933 113.696 7.156L113.92 7.1L114.06 6.82L114.816 7.296C114.835 7.42667 114.741 8.052 114.536 9.172C114.349 10.2733 114.191 11.2347 114.06 12.056L115.936 10.684C115.88 10.4973 115.843 10.3667 115.824 10.292C115.824 10.2173 115.833 10.1613 115.852 10.124C115.871 10.068 115.88 9.984 115.88 9.872C115.899 9.76 116.067 9.116 116.384 7.94C116.72 6.74533 116.907 5.97067 116.944 5.616C117 5.24267 117.075 4.76667 117.168 4.188L117.028 4.132L114.396 5.364C114.228 5.62533 114.06 5.87733 113.892 6.12C113.705 6.10133 113.547 6.10133 113.416 6.12C113.304 6.12 113.183 6.092 113.052 6.036C112.921 5.96133 112.716 5.84 112.436 5.672C112.417 5.56 112.399 5.48533 112.38 5.448C112.361 5.392 112.324 5.31733 112.268 5.224C112.212 5.112 112.091 4.916 111.904 4.636L111.54 4.468L111.372 4.188C111.484 3.98267 111.559 3.74933 111.596 3.488L112.044 3.32C112.212 3.376 112.324 3.42267 112.38 3.46C112.455 3.47867 112.595 3.50667 112.8 3.544C113.024 3.58133 113.668 3.30133 114.732 2.704C115.796 2.088 116.468 1.68667 116.748 1.5C117.047 1.29467 117.373 1.052 117.728 0.771999ZM126.436 4.58C126.119 5.15867 125.885 5.63467 125.736 6.008C125.605 6.36267 125.297 7.044 124.812 8.052C124.345 9.04133 123.991 9.94667 123.748 10.768C127.183 9.38667 128.937 8.67733 129.012 8.64C129.105 8.584 129.217 8.51867 129.348 8.444L126.464 4.608L126.436 4.58ZM118.624 6.792C118.419 7.10933 118.307 7.436 118.288 7.772L118.092 7.856L118.204 7.996L118.064 7.968L118.008 8.332L118.148 8.108L118.204 8.332C118.353 7.92133 118.465 7.65067 118.54 7.52C118.633 7.37067 118.671 7.24933 118.652 7.156C118.652 7.06267 118.661 6.94133 118.68 6.792H118.624ZM117.98 8.864L117.868 9.48H117.952L118.064 8.864H117.98ZM118.596 11.16C118.391 11.272 118.204 11.356 118.036 11.412C117.868 11.4493 117.672 11.552 117.448 11.72C117.224 11.888 116.86 12.1587 116.356 12.532L115.852 13.092L118.596 11.16ZM118.904 11.244C118.12 11.58 117.429 12.0093 116.832 12.532L116.636 12.84C116.449 13.0267 116.244 13.176 116.02 13.288L116.16 13.344C117.037 12.6907 117.952 12.0747 118.904 11.496L118.96 11.272L118.904 11.244ZM125.288 13.176C125.437 13.3253 125.559 13.456 125.652 13.568C125.745 13.6613 125.876 13.96 126.044 14.464C126.212 14.9493 126.333 15.4907 126.408 16.088C126.483 16.6853 126.511 17.1427 126.492 17.46C126.473 17.7773 126.445 18.2347 126.408 18.832L126.716 18.552C127.295 17.824 127.724 17.3013 128.004 16.984C128.303 16.6667 128.564 16.2933 128.788 15.864C129.012 15.4347 129.115 15.1547 129.096 15.024C129.077 14.8747 129.087 14.7067 129.124 14.52C129.012 14.4827 128.769 14.5013 128.396 14.576C128.041 14.6507 127.817 14.6787 127.724 14.66L128.536 14.24C128.331 14.3333 128.125 14.3427 127.92 14.268L128.004 14.184L128.48 13.932L128.284 13.876L129.264 13.54L128.592 13.596C128.853 13.5213 129.04 13.4653 129.152 13.428C129.283 13.372 129.432 13.3347 129.6 13.316C129.787 13.2973 129.945 13.344 130.076 13.456C130.207 13.568 130.375 13.6987 130.58 13.848C130.767 14.1093 130.907 14.296 131 14.408C131.112 14.5013 131.205 14.6693 131.28 14.912C131.355 15.136 131.355 15.3787 131.28 15.64C131.205 15.9013 131.168 16.088 131.168 16.2C131.187 16.312 131.149 16.4053 131.056 16.48C130.981 16.536 130.86 16.676 130.692 16.9L130.72 17.04L129.628 17.656L129.488 17.572C129.152 17.7587 128.872 17.908 128.648 18.02C128.424 18.132 127.612 18.7573 126.212 19.896C126.641 19.84 127.005 19.784 127.304 19.728C127.621 19.6907 128.051 19.5693 128.592 19.364C129.152 19.1587 129.665 19.028 130.132 18.972C130.617 18.8973 130.972 18.888 131.196 18.944C131.439 18.9813 131.616 19.0747 131.728 19.224C131.859 19.3733 132.017 19.476 132.204 19.532C132.409 19.588 132.587 19.6627 132.736 19.756C132.904 19.868 133.147 20.036 133.464 20.26C133.613 20.484 133.744 20.6613 133.856 20.792C133.968 20.9413 134.005 21.1653 133.968 21.464C133.949 21.7813 133.865 22.0333 133.716 22.22C133.567 22.4067 133.483 22.5373 133.464 22.612C133.445 22.7053 133.389 22.8267 133.296 22.976C133.109 23.2187 132.876 23.3773 132.596 23.452L132.904 23.508L132.96 23.704C132.867 23.704 132.792 23.7133 132.736 23.732C132.68 23.7507 132.577 23.7133 132.428 23.62C132.279 23.5453 132.157 23.5267 132.064 23.564C131.971 23.62 131.859 23.6667 131.728 23.704L131.784 23.648C131.747 23.648 131.719 23.6293 131.7 23.592C131.7 23.5733 131.653 23.5827 131.56 23.62C131.485 23.6573 131.373 23.6853 131.224 23.704L131.056 23.508C130.925 23.4893 130.823 23.452 130.748 23.396C130.673 23.3587 130.496 23.3493 130.216 23.368C129.955 23.3867 129.6 23.48 129.152 23.648C128.704 23.8347 128.219 24.068 127.696 24.348C127.173 24.628 126.828 24.8427 126.66 24.992C126.492 25.1413 126.287 25.3187 126.044 25.524L125.848 25.692H125.736L127.864 23.34C127.677 23.396 127.099 23.5173 126.128 23.704C125.157 23.8907 124.448 23.984 124 23.984C123.571 23.984 123.076 23.9933 122.516 24.012L122.488 24.208L121.368 23.536L120.164 22.164L120.248 21.968L119.996 21.548C120.108 21.548 120.425 21.4733 120.948 21.324C121.489 21.1747 122.04 21.0253 122.6 20.876L122.516 20.708L122.012 20.204C121.975 20.0173 121.947 19.8867 121.928 19.812C121.928 19.7373 121.947 19.6533 121.984 19.56C122.021 19.4667 122.031 19.364 122.012 19.252C122.012 19.14 122.077 19.028 122.208 18.916C122.357 18.804 122.404 18.496 122.348 17.992C122.311 17.4693 122.255 16.9747 122.18 16.508C122.105 16.0227 122.012 15.7147 121.9 15.584C121.788 15.4533 121.667 15.2853 121.536 15.08L121.704 14.996L121.564 14.884L121.732 14.856L121.676 14.716C121.788 14.66 121.937 14.6413 122.124 14.66L121.844 14.408C121.919 14.408 121.984 14.408 122.04 14.408C122.096 14.3893 122.143 14.408 122.18 14.464C122.236 14.52 122.348 14.6133 122.516 14.744C122.721 15.1733 122.936 15.5653 123.16 15.92C123.291 15.6773 123.533 15.3507 123.888 14.94C124.243 14.5293 124.467 14.212 124.56 13.988H124.42L124.756 13.596L125.232 13.428L125.008 13.344L125.148 13.288L124.98 13.204L125.008 13.12L125.288 13.176ZM115.824 13.512L115.236 14.1L115.348 14.156L115.88 13.596L115.908 13.512H115.824ZM124.616 14.408L124 14.8C123.869 15.0427 123.757 15.2293 123.664 15.36C123.571 15.4907 123.477 15.7893 123.384 16.256C123.291 16.704 123.337 17.3573 123.524 18.216C123.711 19.0747 123.804 19.5787 123.804 19.728C123.804 19.8773 123.785 20.0547 123.748 20.26L123.384 20.596L124.84 20.26L124.392 19.504L124.476 19.364L124.308 19.196C124.439 18.8227 124.56 18.5333 124.672 18.328C124.784 18.1227 124.877 17.7213 124.952 17.124C125.027 16.508 125.045 15.9853 125.008 15.556C124.989 15.108 124.943 14.8467 124.868 14.772C124.812 14.6787 124.747 14.5667 124.672 14.436L124.616 14.408ZM115.824 15.444L115.908 15.584L116.16 15.612L116.188 15.836H116.552L116.608 15.92C116.384 16.1627 116.272 16.424 116.272 16.704L116.412 16.816C116.375 16.9467 116.356 17.0493 116.356 17.124C116.356 17.1987 116.309 17.2827 116.216 17.376C116.141 17.4507 116.011 17.6093 115.824 17.852C115.357 18.2253 114.956 18.524 114.62 18.748C114.284 18.9533 113.771 19.196 113.08 19.476C112.389 19.7747 111.951 19.924 111.764 19.924C111.596 19.9427 111.381 19.98 111.12 20.036L111.008 19.896C111.045 19.7653 111.073 19.6627 111.092 19.588C111.129 19.5133 111.223 19.4013 111.372 19.252C111.54 19.1027 111.792 18.804 112.128 18.356C112.707 17.7587 113.136 17.3293 113.416 17.068C113.715 16.788 114.051 16.536 114.424 16.312C114.797 16.088 115.087 15.892 115.292 15.724C115.497 15.556 115.637 15.4533 115.712 15.416L115.824 15.444ZM150.432 1.192C150.451 1.192 150.469 1.192 150.488 1.192C150.507 1.17333 150.74 1.20133 151.188 1.276C151.636 1.35067 151.935 1.37867 152.084 1.36C152.252 1.34133 152.401 1.304 152.532 1.248L152.868 1.584C153.316 1.73333 153.727 1.95733 154.1 2.256C154.212 2.48 154.305 2.62933 154.38 2.704C154.455 2.77867 154.483 2.86267 154.464 2.956C154.464 3.04933 154.473 3.18 154.492 3.348L154.24 3.488L154.072 3.684C154.501 3.628 154.893 3.58133 155.248 3.544C155.621 3.488 156.228 3.432 157.068 3.376C157.908 3.30133 158.44 3.27333 158.664 3.292C158.888 3.31067 159.047 3.28267 159.14 3.208C159.252 3.13333 159.364 3.07733 159.476 3.04C159.607 3.00267 159.719 2.984 159.812 2.984C159.905 2.984 160.073 2.984 160.316 2.984L160.428 3.264C160.652 3.41333 160.932 3.6 161.268 3.824C161.623 4.02933 161.931 4.216 162.192 4.384L162.528 4.944L162.36 5.532C162.099 5.73733 161.903 5.88667 161.772 5.98C161.641 6.07333 161.501 6.11067 161.352 6.092C161.221 6.05467 161.063 6.02667 160.876 6.008C160.708 5.97067 160.4 5.924 159.952 5.868L159.644 5.42L158.636 5.532L158.776 5.364L158.552 5.224C158.067 5.46667 157.581 5.69067 157.096 5.896C156.629 6.08267 156.331 6.204 156.2 6.26C156.125 6.316 156.079 6.372 156.06 6.428C155.948 6.428 155.855 6.428 155.78 6.428C155.724 6.428 155.677 6.456 155.64 6.512C155.603 6.54933 155.528 6.61467 155.416 6.708C155.453 6.708 155.491 6.69867 155.528 6.68C155.584 6.66133 155.873 6.708 156.396 6.82C156.937 6.932 157.255 7.03467 157.348 7.128C157.46 7.22133 157.572 7.31467 157.684 7.408L157.824 7.8L157.236 8.164L157.18 8.528C156.956 8.62133 156.797 8.68667 156.704 8.724C156.611 8.74267 156.499 8.808 156.368 8.92C156.256 9.01333 156.051 9.06933 155.752 9.088C155.453 9.10667 155.192 9.19067 154.968 9.34C154.763 9.47067 154.567 9.536 154.38 9.536C154.193 9.536 154.025 9.62 153.876 9.788C153.745 9.93733 153.456 10.1987 153.008 10.572L153.092 10.404C152.98 10.4973 152.868 10.5533 152.756 10.572C152.756 10.7027 152.737 10.8053 152.7 10.88L152.476 11.076L151.132 12.42L151.104 12.252H151.216C151.328 12.1213 151.449 11.972 151.58 11.804L152.504 11.02L152.42 10.908C152.271 11.0387 152.121 11.1133 151.972 11.132L152 11.104L152.14 11.048C152.177 10.936 152.233 10.8427 152.308 10.768L152.252 10.628L152.112 10.712C152.056 10.8613 151.972 10.992 151.86 11.104L151.72 11.02L151.552 11.272L151.636 11.16L151.664 11.244C151.421 11.4307 151.169 11.608 150.908 11.776L150.88 11.944L150.684 12.056L150.768 12.14C150.6 12.2333 150.441 12.336 150.292 12.448L150.376 12.532H150.544L150.936 12.084L151.132 11.972V12.056L150.432 12.7C150.021 13.1667 149.629 13.6147 149.256 14.044L149.368 14.24L148.948 14.772L149.06 14.8C150.777 13.7173 151.729 13.1013 151.916 12.952C152.103 12.8027 152.308 12.644 152.532 12.476L152.588 12.588L152.7 12.364C152.868 12.252 152.98 12.168 153.036 12.112C153.111 12.056 153.167 12.0373 153.204 12.056C153.241 12.056 153.297 12.056 153.372 12.056L154.156 11.272L154.016 11.608C154.389 11.384 154.772 11.1413 155.164 10.88L154.912 11.132L154.576 11.356C153.997 11.972 153.587 12.4013 153.344 12.644C153.101 12.868 152.961 13.0173 152.924 13.092C152.887 13.1667 152.821 13.2693 152.728 13.4H152.56C152.243 13.96 151.86 14.464 151.412 14.912H151.552L152.336 14.408L151.86 14.8L152.336 14.996C152.28 15.276 152.243 15.472 152.224 15.584C152.205 15.696 152.205 15.8173 152.224 15.948C152.243 16.06 152.205 16.172 152.112 16.284C152.037 16.396 151.991 16.5267 151.972 16.676C151.972 16.8253 151.991 16.956 152.028 17.068C152.084 17.1613 152.103 17.2827 152.084 17.432C152.065 17.5813 152.056 17.684 152.056 17.74C152.075 17.7773 152.103 17.8147 152.14 17.852C152.476 17.7027 152.803 17.5067 153.12 17.264L153.204 17.124L153.316 17.096L153.372 16.788H153.568C153.568 16.6947 153.577 16.592 153.596 16.48C153.727 16.5173 153.829 16.4707 153.904 16.34C154.053 16.4333 154.24 16.536 154.464 16.648C154.688 16.7413 154.949 16.8067 155.248 16.844C155.547 16.8813 156.004 16.9467 156.62 17.04L156.312 16.284L156.06 16.452L155.752 16.228C155.715 15.6867 155.603 15.1733 155.416 14.688L155.052 14.66L155.192 14.408L154.94 14.38L155.164 14.072C155.089 14.016 155.033 13.932 154.996 13.82L155.5 13.624C155.556 12.9707 155.565 12.504 155.528 12.224C155.509 11.9253 155.5 11.608 155.5 11.272C155.519 10.936 155.509 10.6747 155.472 10.488C155.435 10.3013 155.453 10.124 155.528 9.956H155.696C155.677 9.80667 155.715 9.66667 155.808 9.536C155.845 9.57333 155.939 9.62 156.088 9.676C156.256 9.732 156.415 9.816 156.564 9.928C156.601 10.0773 156.639 10.1987 156.676 10.292C156.713 10.3667 156.807 10.5253 156.956 10.768C157.105 10.992 157.283 11.3653 157.488 11.888C157.712 12.4107 157.917 13.0173 158.104 13.708C158.291 14.38 158.412 14.912 158.468 15.304C158.524 15.6773 158.524 15.9107 158.468 16.004C158.431 16.0787 158.403 16.1907 158.384 16.34L158.216 16.452L157.74 16.928C157.665 16.928 157.6 16.928 157.544 16.928C157.507 16.928 157.451 16.9 157.376 16.844C157.301 16.7693 157.189 16.6573 157.04 16.508L156.928 17.012L156.76 17.152C156.779 17.1707 156.797 17.1893 156.816 17.208C156.835 17.2267 156.844 17.2733 156.844 17.348C156.844 17.404 156.872 17.5067 156.928 17.656L156.424 18.02L156.508 18.356C156.191 18.468 155.64 18.608 154.856 18.776C154.091 18.9253 153.372 19.1027 152.7 19.308C152.663 19.588 152.625 19.7653 152.588 19.84C152.551 19.9333 152.532 20.2413 152.532 20.764C152.551 21.2867 152.541 21.884 152.504 22.556C152.821 22.4813 153.493 22.36 154.52 22.192C155.547 22.0427 156.396 21.996 157.068 22.052C157.759 22.1267 158.188 22.0893 158.356 21.94C158.543 21.8093 158.72 21.7253 158.888 21.688C159.056 21.6693 159.196 21.604 159.308 21.492C159.439 21.38 159.532 21.3147 159.588 21.296C159.663 21.296 159.728 21.2867 159.784 21.268L160.036 21.576L159.924 21.8H160.372L160.596 22.024C160.783 22.1173 160.923 22.192 161.016 22.248C161.109 22.304 161.371 22.3787 161.8 22.472C162.248 22.584 162.537 22.696 162.668 22.808C162.799 22.9387 162.976 23.1067 163.2 23.312L163.396 24.124L162.36 25.244C162.08 25.3 161.856 25.3467 161.688 25.384C161.539 25.4213 161.389 25.3933 161.24 25.3C161.091 25.2067 160.895 25.1413 160.652 25.104C160.428 25.0853 160.167 25.02 159.868 24.908C159.569 24.796 159.14 24.6467 158.58 24.46C158.039 24.2733 157.404 24.152 156.676 24.096C155.948 24.04 155.248 24.04 154.576 24.096C153.904 24.1707 153.241 24.2733 152.588 24.404C151.935 24.5347 151.263 24.684 150.572 24.852C149.881 25.0387 149.163 25.2067 148.416 25.356C147.688 25.5053 147.193 25.6173 146.932 25.692C146.689 25.7853 146.428 25.8227 146.148 25.804C145.887 25.804 145.504 25.8507 145 25.944L146.792 25.58L144.048 25.888L144.328 25.972C144.085 26.1027 143.88 26.2613 143.712 26.448L143.096 26.112L142.956 25.804L142.424 25.44L142.592 24.88L142.788 24.74L142.648 24.404L142.984 24.208C143.115 24.2267 143.227 24.2453 143.32 24.264C143.432 24.3013 143.945 24.2827 144.86 24.208C145.775 24.1333 147.576 23.7693 150.264 23.116C150.264 22.948 150.264 22.8267 150.264 22.752C150.283 22.6773 150.245 22.556 150.152 22.388C150.059 22.2387 150.049 22.0987 150.124 21.968C150.199 21.8373 150.227 21.7253 150.208 21.632C150.189 21.5387 150.217 21.4547 150.292 21.38C150.385 21.3053 150.469 21.0907 150.544 20.736C150.637 20.3813 150.675 20.1573 150.656 20.064C150.637 19.9893 150.628 19.9427 150.628 19.924C150.647 19.9053 150.665 19.8493 150.684 19.756C150.404 19.868 150.18 19.952 150.012 20.008C149.844 20.0827 149.583 20.1667 149.228 20.26C148.873 20.372 148.64 20.4653 148.528 20.54C148.416 20.6147 148.276 20.7267 148.108 20.876C148.108 21.0627 148.108 21.1933 148.108 21.268C148.127 21.3613 148.108 21.4267 148.052 21.464C147.996 21.5013 147.912 21.576 147.8 21.688L147.548 21.772L147.38 21.464L147.268 21.436L146.988 20.708L146.68 20.484C146.661 20.3533 146.652 20.26 146.652 20.204C146.652 20.148 146.68 20.0827 146.736 20.008C146.792 19.952 146.857 19.8493 146.932 19.7H147.072L147.128 19.588L146.988 19.532C146.932 19.4387 146.941 19.336 147.016 19.224C147.109 19.224 147.184 19.2147 147.24 19.196C147.296 19.1773 147.371 19.2053 147.464 19.28C147.557 19.3547 147.725 19.392 147.968 19.392C148.229 19.392 149.219 19.0373 150.936 18.328C150.955 17.6747 150.992 17.236 151.048 17.012C151.104 16.7693 151.104 16.5733 151.048 16.424C150.992 16.2747 150.945 16.032 150.908 15.696H150.74L150.628 15.864C150.46 15.9947 150.273 16.06 150.068 16.06C150.087 16.172 150.068 16.2467 150.012 16.284L149.956 16.144L150.768 15.584L150.712 15.416C149.835 16.032 148.939 16.6107 148.024 17.152H148.388L147.52 17.656L146.848 18.356C146.811 18.3933 146.764 18.4213 146.708 18.44C146.652 18.4587 146.577 18.5053 146.484 18.58C146.409 18.6547 146.251 18.7013 146.008 18.72C145.765 18.72 145.569 18.72 145.42 18.72C145.345 18.2347 145.233 17.7493 145.084 17.264L145.28 17.096L144.888 16.9L145.056 16.872L145.084 16.648L144.972 16.592L145.084 16.648L145.42 16.508L145.28 16.48L145.252 16.256C145.289 16.1813 145.355 16.1627 145.448 16.2C145.485 15.9947 145.569 15.7893 145.7 15.584L145.812 15.528V15.304C145.905 15.2293 146.017 15.1453 146.148 15.052C146.279 14.94 146.391 14.884 146.484 14.884C146.596 14.8653 146.745 14.8187 146.932 14.744L150.152 11.244L148.668 11.832L148.976 11.608C148.771 11.72 148.612 11.804 148.5 11.86C148.407 11.8973 148.332 11.916 148.276 11.916C148.239 11.916 148.201 11.916 148.164 11.916L147.828 12.196L147.884 12.028L148.024 11.972L147.94 11.86L147.772 11.972L147.688 11.944L147.268 12.308L147.296 12.196C146.96 12.364 146.633 12.3453 146.316 12.14L146.12 11.86C146.12 11.7853 146.185 11.6267 146.316 11.384C146.465 11.1227 146.531 10.9173 146.512 10.768C146.493 10.6187 146.503 10.5067 146.54 10.432C146.596 10.3573 146.605 10.3013 146.568 10.264C146.549 10.208 146.512 10.1333 146.456 10.04L146.26 9.872C146.391 9.83467 146.484 9.80667 146.54 9.788C146.615 9.75067 146.82 9.79733 147.156 9.928C147.492 10.04 148.323 9.816 149.648 9.256C150.992 8.696 151.851 8.31333 152.224 8.108C152.597 7.90267 152.84 7.76267 152.952 7.688H152.7L153.12 7.38L153.008 7.296C153.12 7.22133 153.288 7.11867 153.512 6.988C153.736 6.83867 154.053 6.66133 154.464 6.456C154.893 6.232 155.715 5.76533 156.928 5.056C156.685 5.03733 156.461 5.01867 156.256 5C156.051 4.98133 155.5 5.028 154.604 5.14C153.708 5.23333 153.083 5.28 152.728 5.28C152.373 5.26133 152.009 5.308 151.636 5.42C151.263 5.532 150.563 5.756 149.536 6.092C148.528 6.40933 147.184 7.072 145.504 8.08C145.541 9.05067 145.551 9.732 145.532 10.124C145.532 10.516 145.513 11.0573 145.476 11.748C145.439 12.42 145.42 12.8587 145.42 13.064C145.439 13.2507 145.457 13.568 145.476 14.016L145.588 13.96L145.644 14.548L145.448 14.716C145.224 15.1267 144.963 15.4907 144.664 15.808C144.123 15.808 143.628 15.6587 143.18 15.36C143.087 15.2107 143.031 15.0987 143.012 15.024C142.993 14.9307 142.928 14.8093 142.816 14.66C142.704 14.5107 142.545 14.2213 142.34 13.792L141.864 13.428L141.836 13.092C141.705 13.0173 141.575 12.924 141.444 12.812L141.528 12.588L141.64 12.756L141.696 12.616L141.808 12.672C141.808 12.5413 141.855 12.392 141.948 12.224C142.041 12.0373 142.079 11.8973 142.06 11.804L142.312 11.608L142.144 11.468L142.284 11.3L142.116 11.048C142.228 10.936 142.377 10.8707 142.564 10.852C142.881 10.4227 143.143 10.0867 143.348 9.844C143.572 9.58267 143.759 9.06 143.908 8.276C144.076 7.492 144.113 6.96933 144.02 6.708C143.927 6.44667 143.908 6.27867 143.964 6.204C144.02 6.11067 144.057 5.94267 144.076 5.7L145.112 6.26C145.243 6.428 145.345 6.54933 145.42 6.624C145.495 6.69867 145.523 6.77333 145.504 6.848C145.485 6.904 145.467 7.00667 145.448 7.156C145.877 6.89467 146.251 6.68 146.568 6.512C146.904 6.344 147.716 5.97067 149.004 5.392C150.292 4.81333 151.207 4.468 151.748 4.356C152.308 4.22533 152.952 4.048 153.68 3.824C153.605 3.74933 153.54 3.69333 153.484 3.656C153.447 3.61867 153.307 3.544 153.064 3.432C152.84 3.30133 152.579 3.236 152.28 3.236C152 3.236 151.627 3.432 151.16 3.824C150.712 4.216 150.367 4.468 150.124 4.58C149.881 4.67333 149.62 4.81333 149.34 5L149.256 4.916L148.92 5.084L149.06 4.804H148.836L151.16 2.788L151.384 2.536L150.432 2.284C150.301 2.15333 150.199 2.06 150.124 2.004C150.068 1.92933 150.04 1.836 150.04 1.724C150.059 1.612 150.059 1.53733 150.04 1.5C150.021 1.46267 150.003 1.42533 149.984 1.388L150.432 1.192ZM151.86 11.3L151.776 11.328L151.496 11.72C151.403 11.776 151.337 11.804 151.3 11.804L151.356 11.636L151.608 11.468L151.832 11.272L151.86 11.3ZM150.656 12.84L150.096 13.484L149.928 13.568L149.62 13.988V13.848L149.816 13.736V13.568L150.292 13.204L150.628 12.812L150.74 12.756L150.768 12.644L150.992 12.532L150.656 12.84ZM149.256 14.184L148.416 14.996L148.472 15.08L148.976 14.52L149.256 14.296V14.212V14.184ZM149.62 16.452L148.696 16.928L149.732 16.284L149.62 16.452ZM152.28 19.756L152.336 20.82C152.392 20.6707 152.429 20.5587 152.448 20.484C152.485 20.4093 152.485 20.3253 152.448 20.232C152.429 20.1387 152.401 19.9613 152.364 19.7L152.28 19.756Z" fill="#333333"/>
</svg>
